<?xml version="1.0" encoding="utf-8" standalone="no"?>
<!DOCTYPE svg PUBLIC "-//W3C//DTD SVG 1.1//EN"
  "http://www.w3.org/Graphics/SVG/1.1/DTD/svg11.dtd">
<svg xmlns:xlink="http://www.w3.org/1999/xlink" width="648pt" height="288pt" viewBox="0 0 648 288" xmlns="http://www.w3.org/2000/svg" version="1.1">
 <metadata>
  <rdf:RDF xmlns:dc="http://purl.org/dc/elements/1.1/" xmlns:cc="http://creativecommons.org/ns#" xmlns:rdf="http://www.w3.org/1999/02/22-rdf-syntax-ns#">
   <cc:Work>
    <dc:type rdf:resource="http://purl.org/dc/dcmitype/StillImage"/>
    <dc:date>2023-11-27T04:45:02.430198</dc:date>
    <dc:format>image/svg+xml</dc:format>
    <dc:creator>
     <cc:Agent>
      <dc:title>Matplotlib v3.7.1, https://matplotlib.org/</dc:title>
     </cc:Agent>
    </dc:creator>
   </cc:Work>
  </rdf:RDF>
 </metadata>
 <defs>
  <style type="text/css">*{stroke-linejoin: round; stroke-linecap: butt}</style>
 </defs>
 <g id="figure_1">
  <g id="patch_1">
   <path d="M 0 288 
L 648 288 
L 648 0 
L 0 0 
z
" style="fill: #ffffff"/>
  </g>
  <g id="axes_1">
   <g id="patch_2">
    <path d="M 81 256.32 
L 583.2 256.32 
L 583.2 34.56 
L 81 34.56 
z
" style="fill: #eaeaf2"/>
   </g>
   <g id="matplotlib.axis_1">
    <g id="xtick_1">
     <g id="line2d_1">
      <path d="M 81 256.32 
L 81 34.56 
" clip-path="url(#p845f60f004)" style="fill: none; stroke: #ffffff; stroke-linecap: round"/>
     </g>
     <g id="text_1">
      <!-- 0 -->
      <g style="fill: #262626" transform="translate(78.270313 270.918437) scale(0.1 -0.1)">
       <defs>
        <path id="Tahoma-30" d="M 3234 2328 
Q 3234 1075 2870 489 
Q 2506 -97 1747 -97 
Q 978 -97 618 500 
Q 259 1097 259 2322 
Q 259 3581 623 4164 
Q 988 4747 1747 4747 
Q 2516 4747 2875 4144 
Q 3234 3541 3234 2328 
z
M 2434 909 
Q 2525 1141 2562 1494 
Q 2600 1847 2600 2328 
Q 2600 2806 2562 3159 
Q 2525 3513 2431 3747 
Q 2338 3984 2173 4107 
Q 2009 4231 1747 4231 
Q 1488 4231 1320 4107 
Q 1153 3984 1056 3741 
Q 963 3503 928 3140 
Q 894 2778 894 2322 
Q 894 1834 923 1506 
Q 953 1178 1053 919 
Q 1144 678 1311 548 
Q 1478 419 1747 419 
Q 2006 419 2173 542 
Q 2341 666 2434 909 
z
" transform="scale(0.015625)"/>
       </defs>
       <use xlink:href="#Tahoma-30"/>
      </g>
     </g>
    </g>
    <g id="xtick_2">
     <g id="line2d_2">
      <path d="M 189.017596 256.32 
L 189.017596 34.56 
" clip-path="url(#p845f60f004)" style="fill: none; stroke: #ffffff; stroke-linecap: round"/>
     </g>
     <g id="text_2">
      <!-- 20000 -->
      <g style="fill: #262626" transform="translate(175.369159 270.918437) scale(0.1 -0.1)">
       <defs>
        <path id="Tahoma-32" d="M 3213 0 
L 341 0 
L 341 653 
Q 650 947 925 1215 
Q 1200 1484 1463 1775 
Q 1994 2359 2187 2711 
Q 2381 3063 2381 3438 
Q 2381 3631 2320 3778 
Q 2259 3925 2153 4022 
Q 2044 4116 1900 4162 
Q 1756 4209 1584 4209 
Q 1419 4209 1248 4167 
Q 1078 4125 922 4063 
Q 791 4009 669 3934 
Q 547 3859 472 3806 
L 438 3806 
L 438 4469 
Q 631 4566 976 4658 
Q 1322 4750 1631 4750 
Q 2281 4750 2650 4404 
Q 3019 4059 3019 3469 
Q 3019 3197 2955 2965 
Q 2891 2734 2778 2538 
Q 2663 2334 2500 2134 
Q 2338 1934 2156 1741 
Q 1863 1422 1502 1078 
Q 1141 734 925 534 
L 3213 534 
L 3213 0 
z
" transform="scale(0.015625)"/>
       </defs>
       <use xlink:href="#Tahoma-32"/>
       <use xlink:href="#Tahoma-30" x="54.589844"/>
       <use xlink:href="#Tahoma-30" x="109.179688"/>
       <use xlink:href="#Tahoma-30" x="163.769531"/>
       <use xlink:href="#Tahoma-30" x="218.359375"/>
      </g>
     </g>
    </g>
    <g id="xtick_3">
     <g id="line2d_3">
      <path d="M 297.035193 256.32 
L 297.035193 34.56 
" clip-path="url(#p845f60f004)" style="fill: none; stroke: #ffffff; stroke-linecap: round"/>
     </g>
     <g id="text_3">
      <!-- 40000 -->
      <g style="fill: #262626" transform="translate(283.386755 270.918437) scale(0.1 -0.1)">
       <defs>
        <path id="Tahoma-34" d="M 3334 1600 
L 2781 1600 
L 2781 0 
L 2181 0 
L 2181 1600 
L 125 1600 
L 125 2256 
L 2206 4653 
L 2781 4653 
L 2781 2100 
L 3334 2100 
L 3334 1600 
z
M 2181 2100 
L 2181 3919 
L 613 2100 
L 2181 2100 
z
" transform="scale(0.015625)"/>
       </defs>
       <use xlink:href="#Tahoma-34"/>
       <use xlink:href="#Tahoma-30" x="54.589844"/>
       <use xlink:href="#Tahoma-30" x="109.179688"/>
       <use xlink:href="#Tahoma-30" x="163.769531"/>
       <use xlink:href="#Tahoma-30" x="218.359375"/>
      </g>
     </g>
    </g>
    <g id="xtick_4">
     <g id="line2d_4">
      <path d="M 405.052789 256.32 
L 405.052789 34.56 
" clip-path="url(#p845f60f004)" style="fill: none; stroke: #ffffff; stroke-linecap: round"/>
     </g>
     <g id="text_4">
      <!-- 60000 -->
      <g style="fill: #262626" transform="translate(391.404352 270.918437) scale(0.1 -0.1)">
       <defs>
        <path id="Tahoma-36" d="M 3284 1509 
Q 3284 1150 3165 847 
Q 3047 544 2847 341 
Q 2638 125 2378 14 
Q 2119 -97 1806 -97 
Q 1491 -97 1233 9 
Q 975 116 778 325 
Q 538 578 402 1001 
Q 266 1425 266 2044 
Q 266 2650 391 3139 
Q 516 3628 775 3991 
Q 1028 4344 1428 4542 
Q 1828 4741 2353 4741 
Q 2509 4741 2643 4725 
Q 2778 4709 2881 4675 
L 2881 4078 
L 2853 4078 
Q 2769 4125 2609 4164 
Q 2450 4203 2269 4203 
Q 1688 4203 1330 3811 
Q 972 3419 906 2647 
Q 1128 2803 1362 2887 
Q 1597 2972 1875 2972 
Q 2147 2972 2351 2917 
Q 2556 2863 2778 2697 
Q 3034 2503 3159 2206 
Q 3284 1909 3284 1509 
z
M 2650 1484 
Q 2650 1772 2575 1965 
Q 2500 2159 2331 2297 
Q 2209 2397 2054 2428 
Q 1900 2459 1738 2459 
Q 1519 2459 1312 2393 
Q 1106 2328 906 2203 
Q 900 2134 897 2070 
Q 894 2006 894 1909 
Q 894 1425 989 1128 
Q 1084 831 1225 678 
Q 1359 531 1501 472 
Q 1644 413 1809 413 
Q 2184 413 2417 681 
Q 2650 950 2650 1484 
z
" transform="scale(0.015625)"/>
       </defs>
       <use xlink:href="#Tahoma-36"/>
       <use xlink:href="#Tahoma-30" x="54.589844"/>
       <use xlink:href="#Tahoma-30" x="109.179688"/>
       <use xlink:href="#Tahoma-30" x="163.769531"/>
       <use xlink:href="#Tahoma-30" x="218.359375"/>
      </g>
     </g>
    </g>
    <g id="xtick_5">
     <g id="line2d_5">
      <path d="M 513.070386 256.32 
L 513.070386 34.56 
" clip-path="url(#p845f60f004)" style="fill: none; stroke: #ffffff; stroke-linecap: round"/>
     </g>
     <g id="text_5">
      <!-- 80000 -->
      <g style="fill: #262626" transform="translate(499.421948 270.918437) scale(0.1 -0.1)">
       <defs>
        <path id="Tahoma-38" d="M 2534 3569 
Q 2534 3881 2325 4090 
Q 2116 4300 1744 4300 
Q 1403 4300 1186 4112 
Q 969 3925 969 3606 
Q 969 3375 1080 3215 
Q 1191 3056 1413 2928 
Q 1509 2875 1707 2781 
Q 1906 2688 2069 2634 
Q 2341 2844 2437 3064 
Q 2534 3284 2534 3569 
z
M 2622 1238 
Q 2622 1525 2509 1694 
Q 2397 1863 2075 2038 
Q 1969 2097 1792 2165 
Q 1616 2234 1394 2328 
Q 1134 2156 996 1904 
Q 859 1653 859 1331 
Q 859 909 1114 634 
Q 1369 359 1753 359 
Q 2147 359 2384 595 
Q 2622 831 2622 1238 
z
M 1747 -106 
Q 1400 -106 1115 -3 
Q 831 100 631 294 
Q 434 481 332 739 
Q 231 997 231 1284 
Q 231 1663 432 1980 
Q 634 2297 1019 2484 
L 1019 2503 
Q 675 2703 509 2940 
Q 344 3178 344 3534 
Q 344 4059 741 4409 
Q 1138 4759 1747 4759 
Q 2381 4759 2764 4426 
Q 3147 4094 3147 3575 
Q 3147 3263 2964 2956 
Q 2781 2650 2438 2478 
L 2438 2459 
Q 2844 2269 3053 1997 
Q 3263 1725 3263 1297 
Q 3263 700 2830 297 
Q 2397 -106 1747 -106 
z
" transform="scale(0.015625)"/>
       </defs>
       <use xlink:href="#Tahoma-38"/>
       <use xlink:href="#Tahoma-30" x="54.589844"/>
       <use xlink:href="#Tahoma-30" x="109.179688"/>
       <use xlink:href="#Tahoma-30" x="163.769531"/>
       <use xlink:href="#Tahoma-30" x="218.359375"/>
      </g>
     </g>
    </g>
    <g id="text_6">
     <!-- Sample Size -->
     <g style="fill: #262626" transform="translate(302.984375 285.289219) scale(0.11 -0.11)">
      <defs>
       <path id="Tahoma-53" d="M 1769 -84 
Q 1263 -84 908 20 
Q 553 125 241 278 
L 241 1053 
L 284 1053 
Q 591 766 978 608 
Q 1366 450 1725 450 
Q 2238 450 2500 664 
Q 2763 878 2763 1228 
Q 2763 1506 2625 1681 
Q 2488 1856 2188 1941 
Q 1972 2003 1794 2043 
Q 1616 2084 1347 2153 
Q 1106 2216 915 2312 
Q 725 2409 578 2566 
Q 434 2719 354 2926 
Q 275 3134 275 3406 
Q 275 3972 715 4355 
Q 1156 4738 1841 4738 
Q 2231 4738 2579 4659 
Q 2928 4581 3225 4438 
L 3225 3697 
L 3178 3697 
Q 2956 3900 2609 4051 
Q 2263 4203 1881 4203 
Q 1450 4203 1184 4001 
Q 919 3800 919 3472 
Q 919 3175 1075 3000 
Q 1231 2825 1528 2744 
Q 1725 2691 2009 2623 
Q 2294 2556 2481 2500 
Q 2963 2353 3184 2056 
Q 3406 1759 3406 1325 
Q 3406 1053 3295 787 
Q 3184 522 2984 338 
Q 2759 134 2476 25 
Q 2194 -84 1769 -84 
z
" transform="scale(0.015625)"/>
       <path id="Tahoma-61" d="M 2375 859 
L 2375 1828 
Q 2166 1809 1845 1776 
Q 1525 1744 1328 1684 
Q 1094 1613 941 1464 
Q 788 1316 788 1050 
Q 788 750 956 597 
Q 1125 444 1450 444 
Q 1728 444 1953 564 
Q 2178 684 2375 859 
z
M 2375 372 
Q 2303 319 2183 223 
Q 2063 128 1950 72 
Q 1794 -9 1648 -53 
Q 1503 -97 1241 -97 
Q 1025 -97 831 -15 
Q 638 66 491 213 
Q 350 356 265 567 
Q 181 778 181 1013 
Q 181 1375 334 1629 
Q 488 1884 819 2034 
Q 1113 2169 1513 2220 
Q 1913 2272 2375 2297 
L 2375 2409 
Q 2375 2616 2312 2742 
Q 2250 2869 2138 2938 
Q 2025 3009 1862 3032 
Q 1700 3056 1528 3056 
Q 1325 3056 1050 2995 
Q 775 2934 500 2819 
L 466 2819 
L 466 3416 
Q 628 3463 931 3519 
Q 1234 3575 1531 3575 
Q 1891 3575 2137 3519 
Q 2384 3463 2581 3316 
Q 2772 3172 2865 2944 
Q 2959 2716 2959 2388 
L 2959 0 
L 2375 0 
L 2375 372 
z
" transform="scale(0.015625)"/>
       <path id="Tahoma-6d" d="M 4388 0 
L 4388 2019 
Q 4388 2259 4369 2464 
Q 4350 2669 4291 2784 
Q 4228 2909 4112 2968 
Q 3997 3028 3800 3028 
Q 3619 3028 3411 2917 
Q 3203 2806 2981 2597 
Q 2984 2544 2989 2470 
Q 2994 2397 2994 2297 
L 2994 0 
L 2406 0 
L 2406 2019 
Q 2406 2259 2387 2464 
Q 2369 2669 2309 2784 
Q 2247 2909 2131 2968 
Q 2016 3028 1819 3028 
Q 1628 3028 1418 2909 
Q 1209 2791 1013 2606 
L 1013 0 
L 425 0 
L 425 3491 
L 1013 3491 
L 1013 3103 
Q 1244 3334 1470 3461 
Q 1697 3588 1969 3588 
Q 2278 3588 2517 3447 
Q 2756 3306 2881 2984 
Q 3147 3281 3400 3434 
Q 3653 3588 3950 3588 
Q 4175 3588 4359 3517 
Q 4544 3447 4681 3291 
Q 4822 3131 4898 2893 
Q 4975 2656 4975 2297 
L 4975 0 
L 4388 0 
z
" transform="scale(0.015625)"/>
       <path id="Tahoma-70" d="M 3353 1838 
Q 3353 966 2936 448 
Q 2519 -69 1881 -69 
Q 1622 -69 1422 -9 
Q 1222 50 1013 175 
L 1013 -1288 
L 425 -1288 
L 425 3491 
L 1013 3491 
L 1013 3125 
Q 1231 3322 1498 3455 
Q 1766 3588 2081 3588 
Q 2681 3588 3017 3113 
Q 3353 2638 3353 1838 
z
M 2747 1772 
Q 2747 2369 2556 2698 
Q 2366 3028 1938 3028 
Q 1688 3028 1455 2917 
Q 1222 2806 1013 2631 
L 1013 653 
Q 1244 541 1408 500 
Q 1572 459 1784 459 
Q 2241 459 2494 793 
Q 2747 1128 2747 1772 
z
" transform="scale(0.015625)"/>
       <path id="Tahoma-6c" d="M 1025 0 
L 438 0 
L 438 4863 
L 1025 4863 
L 1025 0 
z
" transform="scale(0.015625)"/>
       <path id="Tahoma-65" d="M 1941 -81 
Q 1106 -81 645 389 
Q 184 859 184 1725 
Q 184 2578 631 3083 
Q 1078 3588 1800 3588 
Q 2125 3588 2375 3494 
Q 2625 3400 2813 3200 
Q 3000 3000 3100 2711 
Q 3200 2422 3200 2003 
L 3200 1684 
L 781 1684 
Q 781 1075 1087 753 
Q 1394 431 1934 431 
Q 2128 431 2314 475 
Q 2500 519 2650 588 
Q 2809 659 2918 726 
Q 3028 794 3100 853 
L 3134 853 
L 3134 213 
Q 3031 172 2878 111 
Q 2725 50 2603 16 
Q 2431 -31 2292 -56 
Q 2153 -81 1941 -81 
z
M 2628 2134 
Q 2622 2372 2572 2544 
Q 2522 2716 2428 2834 
Q 2325 2966 2164 3034 
Q 2003 3103 1766 3103 
Q 1531 3103 1367 3033 
Q 1203 2963 1069 2828 
Q 938 2691 869 2523 
Q 800 2356 781 2134 
L 2628 2134 
z
" transform="scale(0.015625)"/>
       <path id="Tahoma-20" transform="scale(0.015625)"/>
       <path id="Tahoma-69" d="M 1025 0 
L 438 0 
L 438 3491 
L 1025 3491 
L 1025 0 
z
M 1066 4075 
L 397 4075 
L 397 4684 
L 1066 4684 
L 1066 4075 
z
" transform="scale(0.015625)"/>
       <path id="Tahoma-7a" d="M 2719 0 
L 153 0 
L 153 434 
L 1978 3006 
L 228 3006 
L 228 3491 
L 2684 3491 
L 2684 3072 
L 850 491 
L 2719 491 
L 2719 0 
z
" transform="scale(0.015625)"/>
      </defs>
      <use xlink:href="#Tahoma-53"/>
      <use xlink:href="#Tahoma-61" x="55.712891"/>
      <use xlink:href="#Tahoma-6d" x="108.203125"/>
      <use xlink:href="#Tahoma-70" x="192.1875"/>
      <use xlink:href="#Tahoma-6c" x="247.460938"/>
      <use xlink:href="#Tahoma-65" x="270.3125"/>
      <use xlink:href="#Tahoma-20" x="322.949219"/>
      <use xlink:href="#Tahoma-53" x="354.199219"/>
      <use xlink:href="#Tahoma-69" x="409.912109"/>
      <use xlink:href="#Tahoma-7a" x="432.763672"/>
      <use xlink:href="#Tahoma-65" x="476.697266"/>
     </g>
    </g>
   </g>
   <g id="matplotlib.axis_2">
    <g id="ytick_1">
     <g id="line2d_6">
      <path d="M 81 238.129655 
L 583.2 238.129655 
" clip-path="url(#p845f60f004)" style="fill: none; stroke: #ffffff; stroke-linecap: round"/>
     </g>
     <g id="text_7">
      <!-- Partition1 -->
      <g style="fill: #262626" transform="translate(32.107812 241.928874) scale(0.1 -0.1)">
       <defs>
        <path id="Tahoma-50" d="M 3409 3250 
Q 3409 2947 3301 2676 
Q 3194 2406 3003 2216 
Q 2763 1978 2438 1856 
Q 2113 1734 1616 1734 
L 1091 1734 
L 1091 0 
L 472 0 
L 472 4653 
L 1641 4653 
Q 2053 4653 2343 4584 
Q 2634 4516 2856 4363 
Q 3116 4184 3262 3911 
Q 3409 3638 3409 3250 
z
M 2766 3234 
Q 2766 3475 2683 3653 
Q 2600 3831 2431 3944 
Q 2284 4041 2089 4081 
Q 1894 4122 1603 4122 
L 1091 4122 
L 1091 2263 
L 1513 2263 
Q 1888 2263 2119 2323 
Q 2350 2384 2503 2541 
Q 2641 2681 2703 2847 
Q 2766 3013 2766 3234 
z
" transform="scale(0.015625)"/>
        <path id="Tahoma-72" d="M 2275 2859 
L 2244 2859 
Q 2178 2878 2104 2883 
Q 2031 2888 1928 2888 
Q 1691 2888 1456 2784 
Q 1222 2681 1013 2478 
L 1013 0 
L 425 0 
L 425 3491 
L 1013 3491 
L 1013 2972 
Q 1334 3256 1573 3373 
Q 1813 3491 2038 3491 
Q 2128 3491 2173 3486 
Q 2219 3481 2275 3472 
L 2275 2859 
z
" transform="scale(0.015625)"/>
        <path id="Tahoma-74" d="M 1481 -69 
Q 1000 -69 731 204 
Q 463 478 463 1069 
L 463 3003 
L 66 3003 
L 66 3491 
L 463 3491 
L 463 4494 
L 1050 4494 
L 1050 3491 
L 2131 3491 
L 2131 3003 
L 1050 3003 
L 1050 1344 
Q 1050 1078 1059 934 
Q 1069 791 1131 666 
Q 1184 556 1303 501 
Q 1422 447 1625 447 
Q 1769 447 1903 489 
Q 2038 531 2097 559 
L 2131 559 
L 2131 31 
Q 1966 -16 1795 -42 
Q 1625 -69 1481 -69 
z
" transform="scale(0.015625)"/>
        <path id="Tahoma-6f" d="M 3297 1744 
Q 3297 863 2872 383 
Q 2447 -97 1741 -97 
Q 1013 -97 595 398 
Q 178 894 178 1744 
Q 178 2619 608 3103 
Q 1038 3588 1741 3588 
Q 2447 3588 2872 3105 
Q 3297 2622 3297 1744 
z
M 2691 1744 
Q 2691 2422 2444 2751 
Q 2197 3081 1741 3081 
Q 1281 3081 1032 2751 
Q 784 2422 784 1744 
Q 784 1088 1032 748 
Q 1281 409 1741 409 
Q 2194 409 2442 742 
Q 2691 1075 2691 1744 
z
" transform="scale(0.015625)"/>
        <path id="Tahoma-6e" d="M 3169 0 
L 2581 0 
L 2581 1988 
Q 2581 2228 2557 2436 
Q 2534 2644 2469 2769 
Q 2397 2900 2269 2964 
Q 2141 3028 1919 3028 
Q 1700 3028 1467 2911 
Q 1234 2794 1013 2606 
L 1013 0 
L 425 0 
L 425 3491 
L 1013 3491 
L 1013 3103 
Q 1275 3338 1531 3463 
Q 1788 3588 2072 3588 
Q 2588 3588 2878 3248 
Q 3169 2909 3169 2266 
L 3169 0 
z
" transform="scale(0.015625)"/>
        <path id="Tahoma-31" d="M 2975 0 
L 706 0 
L 706 475 
L 1550 475 
L 1550 3594 
L 706 3594 
L 706 4019 
Q 1184 4019 1411 4155 
Q 1638 4291 1666 4669 
L 2150 4669 
L 2150 475 
L 2975 475 
L 2975 0 
z
" transform="scale(0.015625)"/>
       </defs>
       <use xlink:href="#Tahoma-50"/>
       <use xlink:href="#Tahoma-61" x="52.876953"/>
       <use xlink:href="#Tahoma-72" x="105.367188"/>
       <use xlink:href="#Tahoma-74" x="141.402344"/>
       <use xlink:href="#Tahoma-69" x="174.849609"/>
       <use xlink:href="#Tahoma-74" x="197.951172"/>
       <use xlink:href="#Tahoma-69" x="231.398438"/>
       <use xlink:href="#Tahoma-6f" x="254.25"/>
       <use xlink:href="#Tahoma-6e" x="308.546875"/>
       <use xlink:href="#Tahoma-31" x="364.308594"/>
      </g>
     </g>
    </g>
    <g id="ytick_2">
     <g id="line2d_7">
      <path d="M 81 191.784828 
L 583.2 191.784828 
" clip-path="url(#p845f60f004)" style="fill: none; stroke: #ffffff; stroke-linecap: round"/>
     </g>
     <g id="text_8">
      <!-- Partition2 -->
      <g style="fill: #262626" transform="translate(32.107812 195.584046) scale(0.1 -0.1)">
       <use xlink:href="#Tahoma-50"/>
       <use xlink:href="#Tahoma-61" x="52.876953"/>
       <use xlink:href="#Tahoma-72" x="105.367188"/>
       <use xlink:href="#Tahoma-74" x="141.402344"/>
       <use xlink:href="#Tahoma-69" x="174.849609"/>
       <use xlink:href="#Tahoma-74" x="197.951172"/>
       <use xlink:href="#Tahoma-69" x="231.398438"/>
       <use xlink:href="#Tahoma-6f" x="254.25"/>
       <use xlink:href="#Tahoma-6e" x="308.546875"/>
       <use xlink:href="#Tahoma-32" x="364.308594"/>
      </g>
     </g>
    </g>
    <g id="ytick_3">
     <g id="line2d_8">
      <path d="M 81 145.44 
L 583.2 145.44 
" clip-path="url(#p845f60f004)" style="fill: none; stroke: #ffffff; stroke-linecap: round"/>
     </g>
     <g id="text_9">
      <!-- Partition3 -->
      <g style="fill: #262626" transform="translate(32.107812 149.239219) scale(0.1 -0.1)">
       <defs>
        <path id="Tahoma-33" d="M 1597 4209 
Q 1428 4209 1259 4168 
Q 1091 4128 928 4063 
Q 778 4000 667 3931 
Q 556 3863 469 3803 
L 431 3803 
L 431 4463 
Q 634 4572 982 4661 
Q 1331 4750 1647 4750 
Q 1963 4750 2198 4686 
Q 2434 4622 2625 4488 
Q 2831 4338 2936 4125 
Q 3041 3913 3041 3628 
Q 3041 3244 2787 2953 
Q 2534 2663 2181 2584 
L 2181 2541 
Q 2328 2513 2495 2444 
Q 2663 2375 2806 2241 
Q 2950 2106 3040 1895 
Q 3131 1684 3131 1381 
Q 3131 1066 3023 802 
Q 2916 538 2719 334 
Q 2516 122 2228 12 
Q 1941 -97 1575 -97 
Q 1225 -97 881 -12 
Q 538 72 303 191 
L 303 850 
L 347 850 
Q 544 706 875 575 
Q 1206 444 1538 444 
Q 1728 444 1920 505 
Q 2113 566 2241 703 
Q 2366 841 2431 1006 
Q 2497 1172 2497 1425 
Q 2497 1678 2423 1840 
Q 2350 2003 2219 2097 
Q 2088 2191 1908 2227 
Q 1728 2263 1519 2263 
L 1253 2263 
L 1253 2781 
L 1459 2781 
Q 1881 2781 2145 2981 
Q 2409 3181 2409 3563 
Q 2409 3738 2340 3864 
Q 2272 3991 2166 4066 
Q 2047 4147 1903 4178 
Q 1759 4209 1597 4209 
z
" transform="scale(0.015625)"/>
       </defs>
       <use xlink:href="#Tahoma-50"/>
       <use xlink:href="#Tahoma-61" x="52.876953"/>
       <use xlink:href="#Tahoma-72" x="105.367188"/>
       <use xlink:href="#Tahoma-74" x="141.402344"/>
       <use xlink:href="#Tahoma-69" x="174.849609"/>
       <use xlink:href="#Tahoma-74" x="197.951172"/>
       <use xlink:href="#Tahoma-69" x="231.398438"/>
       <use xlink:href="#Tahoma-6f" x="254.25"/>
       <use xlink:href="#Tahoma-6e" x="308.546875"/>
       <use xlink:href="#Tahoma-33" x="364.308594"/>
      </g>
     </g>
    </g>
    <g id="ytick_4">
     <g id="line2d_9">
      <path d="M 81 99.095172 
L 583.2 99.095172 
" clip-path="url(#p845f60f004)" style="fill: none; stroke: #ffffff; stroke-linecap: round"/>
     </g>
     <g id="text_10">
      <!-- Partition4 -->
      <g style="fill: #262626" transform="translate(32.107812 102.894391) scale(0.1 -0.1)">
       <use xlink:href="#Tahoma-50"/>
       <use xlink:href="#Tahoma-61" x="52.876953"/>
       <use xlink:href="#Tahoma-72" x="105.367188"/>
       <use xlink:href="#Tahoma-74" x="141.402344"/>
       <use xlink:href="#Tahoma-69" x="174.849609"/>
       <use xlink:href="#Tahoma-74" x="197.951172"/>
       <use xlink:href="#Tahoma-69" x="231.398438"/>
       <use xlink:href="#Tahoma-6f" x="254.25"/>
       <use xlink:href="#Tahoma-6e" x="308.546875"/>
       <use xlink:href="#Tahoma-34" x="364.308594"/>
      </g>
     </g>
    </g>
    <g id="ytick_5">
     <g id="line2d_10">
      <path d="M 81 52.750345 
L 583.2 52.750345 
" clip-path="url(#p845f60f004)" style="fill: none; stroke: #ffffff; stroke-linecap: round"/>
     </g>
     <g id="text_11">
      <!-- Partition5 -->
      <g style="fill: #262626" transform="translate(32.107812 56.549564) scale(0.1 -0.1)">
       <defs>
        <path id="Tahoma-35" d="M 3159 1481 
Q 3159 1144 3051 856 
Q 2944 569 2750 359 
Q 2553 147 2261 25 
Q 1969 -97 1606 -97 
Q 1272 -97 948 -23 
Q 625 50 388 169 
L 388 828 
L 431 828 
Q 503 775 637 708 
Q 772 641 934 581 
Q 1119 516 1272 480 
Q 1425 444 1616 444 
Q 1803 444 1981 511 
Q 2159 578 2288 728 
Q 2403 866 2464 1050 
Q 2525 1234 2525 1484 
Q 2525 1731 2458 1890 
Q 2391 2050 2263 2153 
Q 2128 2272 1933 2320 
Q 1738 2369 1497 2369 
Q 1244 2369 987 2330 
Q 731 2291 578 2256 
L 578 4653 
L 3131 4653 
L 3131 4106 
L 1181 4106 
L 1181 2869 
Q 1294 2881 1403 2887 
Q 1513 2894 1603 2894 
Q 1959 2894 2206 2834 
Q 2453 2775 2681 2603 
Q 2913 2428 3036 2165 
Q 3159 1903 3159 1481 
z
" transform="scale(0.015625)"/>
       </defs>
       <use xlink:href="#Tahoma-50"/>
       <use xlink:href="#Tahoma-61" x="52.876953"/>
       <use xlink:href="#Tahoma-72" x="105.367188"/>
       <use xlink:href="#Tahoma-74" x="141.402344"/>
       <use xlink:href="#Tahoma-69" x="174.849609"/>
       <use xlink:href="#Tahoma-74" x="197.951172"/>
       <use xlink:href="#Tahoma-69" x="231.398438"/>
       <use xlink:href="#Tahoma-6f" x="254.25"/>
       <use xlink:href="#Tahoma-6e" x="308.546875"/>
       <use xlink:href="#Tahoma-35" x="364.308594"/>
      </g>
     </g>
    </g>
   </g>
   <g id="patch_3">
    <path d="M 81 246.24 
L 405.754904 246.24 
L 405.754904 230.01931 
L 81 230.01931 
z
" clip-path="url(#p845f60f004)" style="fill: #a6c5d5; stroke: #ffffff; stroke-width: 0.3; stroke-linejoin: miter"/>
   </g>
   <g id="patch_4">
    <path d="M 81 199.895172 
L 477.251751 199.895172 
L 477.251751 183.674483 
L 81 183.674483 
z
" clip-path="url(#p845f60f004)" style="fill: #a6c5d5; stroke: #ffffff; stroke-width: 0.3; stroke-linejoin: miter"/>
   </g>
   <g id="patch_5">
    <path d="M 81 153.550345 
L 268.745384 153.550345 
L 268.745384 137.329655 
L 81 137.329655 
z
" clip-path="url(#p845f60f004)" style="fill: #a6c5d5; stroke: #ffffff; stroke-width: 0.3; stroke-linejoin: miter"/>
   </g>
   <g id="patch_6">
    <path d="M 81 107.205517 
L 314.825691 107.205517 
L 314.825691 90.984828 
L 81 90.984828 
z
" clip-path="url(#p845f60f004)" style="fill: #a6c5d5; stroke: #ffffff; stroke-width: 0.3; stroke-linejoin: miter"/>
   </g>
   <g id="patch_7">
    <path d="M 81 60.86069 
L 419.570354 60.86069 
L 419.570354 44.64 
L 81 44.64 
z
" clip-path="url(#p845f60f004)" style="fill: #a6c5d5; stroke: #ffffff; stroke-width: 0.3; stroke-linejoin: miter"/>
   </g>
   <g id="patch_8">
    <path d="M 405.754904 246.24 
L 436.496712 246.24 
L 436.496712 230.01931 
L 405.754904 230.01931 
z
" clip-path="url(#p845f60f004)" style="fill: #6590a6; stroke: #ffffff; stroke-width: 0.3; stroke-linejoin: miter"/>
   </g>
   <g id="patch_9">
    <path d="M 477.251751 199.895172 
L 504.13733 199.895172 
L 504.13733 183.674483 
L 477.251751 183.674483 
z
" clip-path="url(#p845f60f004)" style="fill: #6590a6; stroke: #ffffff; stroke-width: 0.3; stroke-linejoin: miter"/>
   </g>
   <g id="patch_10">
    <path d="M 268.745384 153.550345 
L 272.444987 153.550345 
L 272.444987 137.329655 
L 268.745384 137.329655 
z
" clip-path="url(#p845f60f004)" style="fill: #6590a6; stroke: #ffffff; stroke-width: 0.3; stroke-linejoin: miter"/>
   </g>
   <g id="patch_11">
    <path d="M 314.825691 107.205517 
L 319.394835 107.205517 
L 319.394835 90.984828 
L 314.825691 90.984828 
z
" clip-path="url(#p845f60f004)" style="fill: #6590a6; stroke: #ffffff; stroke-width: 0.3; stroke-linejoin: miter"/>
   </g>
   <g id="patch_12">
    <path d="M 419.570354 60.86069 
L 451.565166 60.86069 
L 451.565166 44.64 
L 419.570354 44.64 
z
" clip-path="url(#p845f60f004)" style="fill: #6590a6; stroke: #ffffff; stroke-width: 0.3; stroke-linejoin: miter"/>
   </g>
   <g id="patch_13">
    <path d="M 436.496712 246.24 
L 471.148756 246.24 
L 471.148756 230.01931 
L 436.496712 230.01931 
z
" clip-path="url(#p845f60f004)" style="fill: #3b657b; stroke: #ffffff; stroke-width: 0.3; stroke-linejoin: miter"/>
   </g>
   <g id="patch_14">
    <path d="M 504.13733 199.895172 
L 551.719082 199.895172 
L 551.719082 183.674483 
L 504.13733 183.674483 
z
" clip-path="url(#p845f60f004)" style="fill: #3b657b; stroke: #ffffff; stroke-width: 0.3; stroke-linejoin: miter"/>
   </g>
   <g id="patch_15">
    <path d="M 272.444987 153.550345 
L 302.900548 153.550345 
L 302.900548 137.329655 
L 272.444987 137.329655 
z
" clip-path="url(#p845f60f004)" style="fill: #3b657b; stroke: #ffffff; stroke-width: 0.3; stroke-linejoin: miter"/>
   </g>
   <g id="patch_16">
    <path d="M 319.394835 107.205517 
L 351.562476 107.205517 
L 351.562476 90.984828 
L 319.394835 90.984828 
z
" clip-path="url(#p845f60f004)" style="fill: #3b657b; stroke: #ffffff; stroke-width: 0.3; stroke-linejoin: miter"/>
   </g>
   <g id="patch_17">
    <path d="M 451.565166 60.86069 
L 482.690437 60.86069 
L 482.690437 44.64 
L 451.565166 44.64 
z
" clip-path="url(#p845f60f004)" style="fill: #3b657b; stroke: #ffffff; stroke-width: 0.3; stroke-linejoin: miter"/>
   </g>
   <g id="patch_18">
    <path d="M 471.148756 246.24 
L 477.030315 246.24 
L 477.030315 230.01931 
L 471.148756 230.01931 
z
" clip-path="url(#p845f60f004)" style="fill: #d1bc3f; stroke: #ffffff; stroke-width: 0.3; stroke-linejoin: miter"/>
   </g>
   <g id="patch_19">
    <path d="M 551.719082 199.895172 
L 558.896851 199.895172 
L 558.896851 183.674483 
L 551.719082 183.674483 
z
" clip-path="url(#p845f60f004)" style="fill: #d1bc3f; stroke: #ffffff; stroke-width: 0.3; stroke-linejoin: miter"/>
   </g>
   <g id="patch_20">
    <path d="M 302.900548 153.550345 
L 309.856882 153.550345 
L 309.856882 137.329655 
L 302.900548 137.329655 
z
" clip-path="url(#p845f60f004)" style="fill: #d1bc3f; stroke: #ffffff; stroke-width: 0.3; stroke-linejoin: miter"/>
   </g>
   <g id="patch_21">
    <path d="M 351.562476 107.205517 
L 357.028166 107.205517 
L 357.028166 90.984828 
L 351.562476 90.984828 
z
" clip-path="url(#p845f60f004)" style="fill: #d1bc3f; stroke: #ffffff; stroke-width: 0.3; stroke-linejoin: miter"/>
   </g>
   <g id="patch_22">
    <path d="M 482.690437 60.86069 
L 487.934691 60.86069 
L 487.934691 44.64 
L 482.690437 44.64 
z
" clip-path="url(#p845f60f004)" style="fill: #d1bc3f; stroke: #ffffff; stroke-width: 0.3; stroke-linejoin: miter"/>
   </g>
   <g id="patch_23">
    <path d="M 477.030315 246.24 
L 477.92146 246.24 
L 477.92146 230.01931 
L 477.030315 230.01931 
z
" clip-path="url(#p845f60f004)" style="fill: #f95a00; stroke: #ffffff; stroke-width: 0.3; stroke-linejoin: miter"/>
   </g>
   <g id="patch_24">
    <path d="M 558.896851 199.895172 
L 559.285714 199.895172 
L 559.285714 183.674483 
L 558.896851 183.674483 
z
" clip-path="url(#p845f60f004)" style="fill: #f95a00; stroke: #ffffff; stroke-width: 0.3; stroke-linejoin: miter"/>
   </g>
   <g id="patch_25">
    <path d="M 309.856882 153.550345 
L 310.591401 153.550345 
L 310.591401 137.329655 
L 309.856882 137.329655 
z
" clip-path="url(#p845f60f004)" style="fill: #f95a00; stroke: #ffffff; stroke-width: 0.3; stroke-linejoin: miter"/>
   </g>
   <g id="patch_26">
    <path d="M 357.028166 107.205517 
L 357.8545 107.205517 
L 357.8545 90.984828 
L 357.028166 90.984828 
z
" clip-path="url(#p845f60f004)" style="fill: #f95a00; stroke: #ffffff; stroke-width: 0.3; stroke-linejoin: miter"/>
   </g>
   <g id="patch_27">
    <path d="M 487.934691 60.86069 
L 488.037308 60.86069 
L 488.037308 44.64 
L 487.934691 44.64 
z
" clip-path="url(#p845f60f004)" style="fill: #f95a00; stroke: #ffffff; stroke-width: 0.3; stroke-linejoin: miter"/>
   </g>
   <g id="patch_28">
    <path d="M 81 256.32 
L 81 34.56 
" style="fill: none"/>
   </g>
   <g id="patch_29">
    <path d="M 583.2 256.32 
L 583.2 34.56 
" style="fill: none"/>
   </g>
   <g id="patch_30">
    <path d="M 81 256.32 
L 583.2 256.32 
" style="fill: none"/>
   </g>
   <g id="patch_31">
    <path d="M 81 34.56 
L 583.2 34.56 
" style="fill: none"/>
   </g>
   <g id="text_12">
    <!-- 58:1 -->
    <g style="fill: #262626" transform="translate(481.466628 240.446897) scale(0.1 -0.1)">
     <defs>
      <path id="Tahoma-3a" d="M 1506 2600 
L 759 2600 
L 759 3491 
L 1506 3491 
L 1506 2600 
z
M 1506 0 
L 759 0 
L 759 891 
L 1506 891 
L 1506 0 
z
" transform="scale(0.015625)"/>
     </defs>
     <use xlink:href="#Tahoma-35"/>
     <use xlink:href="#Tahoma-38" x="54.589844"/>
     <use xlink:href="#Tahoma-3a" x="109.179688"/>
     <use xlink:href="#Tahoma-31" x="144.53125"/>
    </g>
   </g>
   <g id="text_13">
    <!-- 62:1 -->
    <g style="fill: #262626" transform="translate(562.830883 194.102069) scale(0.1 -0.1)">
     <use xlink:href="#Tahoma-36"/>
     <use xlink:href="#Tahoma-32" x="54.589844"/>
     <use xlink:href="#Tahoma-3a" x="109.179688"/>
     <use xlink:href="#Tahoma-31" x="144.53125"/>
    </g>
   </g>
   <g id="text_14">
    <!-- 29:1 -->
    <g style="fill: #262626" transform="translate(314.136569 147.757241) scale(0.1 -0.1)">
     <defs>
      <path id="Tahoma-39" d="M 2600 2741 
Q 2600 3216 2512 3514 
Q 2425 3813 2272 3975 
Q 2134 4125 1993 4181 
Q 1853 4238 1684 4238 
Q 1300 4238 1072 3963 
Q 844 3688 844 3166 
Q 844 2872 919 2681 
Q 994 2491 1163 2353 
Q 1281 2256 1431 2223 
Q 1581 2191 1753 2191 
Q 1953 2191 2184 2261 
Q 2416 2331 2588 2447 
Q 2591 2494 2595 2570 
Q 2600 2647 2600 2741 
z
M 209 3141 
Q 209 3500 326 3797 
Q 444 4094 647 4309 
Q 841 4516 1120 4631 
Q 1400 4747 1688 4747 
Q 2009 4747 2270 4639 
Q 2531 4531 2722 4328 
Q 2963 4072 3095 3656 
Q 3228 3241 3228 2606 
Q 3228 2028 3098 1511 
Q 2969 994 2716 653 
Q 2447 291 2070 100 
Q 1694 -91 1141 -91 
Q 1016 -91 875 -77 
Q 734 -63 613 -25 
L 613 572 
L 644 572 
Q 722 528 887 487 
Q 1053 447 1225 447 
Q 1838 447 2188 850 
Q 2538 1253 2584 2003 
Q 2334 1834 2107 1756 
Q 1881 1678 1616 1678 
Q 1356 1678 1143 1734 
Q 931 1791 716 1953 
Q 466 2144 337 2436 
Q 209 2728 209 3141 
z
" transform="scale(0.015625)"/>
     </defs>
     <use xlink:href="#Tahoma-32"/>
     <use xlink:href="#Tahoma-39" x="54.589844"/>
     <use xlink:href="#Tahoma-3a" x="109.179688"/>
     <use xlink:href="#Tahoma-31" x="144.53125"/>
    </g>
   </g>
   <g id="text_15">
    <!-- 43:1 -->
    <g style="fill: #262626" transform="translate(361.399669 101.412414) scale(0.1 -0.1)">
     <use xlink:href="#Tahoma-34"/>
     <use xlink:href="#Tahoma-33" x="54.589844"/>
     <use xlink:href="#Tahoma-3a" x="109.179688"/>
     <use xlink:href="#Tahoma-31" x="144.53125"/>
    </g>
   </g>
   <g id="text_16">
    <!-- 75:1 -->
    <g style="fill: #262626" transform="translate(491.582476 55.067586) scale(0.1 -0.1)">
     <defs>
      <path id="Tahoma-37" d="M 3263 3956 
L 1250 0 
L 584 0 
L 2716 4106 
L 309 4106 
L 309 4653 
L 3263 4653 
L 3263 3956 
z
" transform="scale(0.015625)"/>
     </defs>
     <use xlink:href="#Tahoma-37"/>
     <use xlink:href="#Tahoma-35" x="54.589844"/>
     <use xlink:href="#Tahoma-3a" x="109.179688"/>
     <use xlink:href="#Tahoma-31" x="144.53125"/>
    </g>
   </g>
   <g id="text_17">
    <!-- FQ:60130 -->
    <g style="fill: #a6c5d5" transform="translate(88.412524 254.350345) scale(0.08 -0.08)">
     <defs>
      <path id="Tahoma-Bold-46" d="M 3597 3766 
L 1644 3766 
L 1644 2888 
L 3441 2888 
L 3441 2000 
L 1644 2000 
L 1644 0 
L 481 0 
L 481 4653 
L 3597 4653 
L 3597 3766 
z
" transform="scale(0.015625)"/>
      <path id="Tahoma-Bold-51" d="M 4713 -1231 
Q 4525 -1278 4336 -1300 
Q 4147 -1322 3744 -1322 
Q 3375 -1322 3117 -1230 
Q 2859 -1138 2688 -969 
Q 2516 -803 2430 -575 
Q 2344 -347 2331 -84 
Q 1344 -41 776 600 
Q 209 1241 209 2325 
Q 209 3447 809 4098 
Q 1409 4750 2463 4750 
Q 3513 4750 4116 4101 
Q 4719 3453 4719 2325 
Q 4719 1503 4376 914 
Q 4034 325 3409 78 
Q 3416 -263 3561 -392 
Q 3706 -522 4072 -522 
Q 4213 -522 4370 -480 
Q 4528 -438 4597 -400 
L 4713 -400 
L 4713 -1231 
z
M 3200 1147 
Q 3350 1350 3431 1620 
Q 3513 1891 3513 2328 
Q 3513 2744 3427 3036 
Q 3341 3328 3197 3516 
Q 3047 3706 2858 3789 
Q 2669 3872 2466 3872 
Q 2250 3872 2075 3795 
Q 1900 3719 1738 3522 
Q 1594 3341 1505 3041 
Q 1416 2741 1416 2325 
Q 1416 1897 1500 1614 
Q 1584 1331 1731 1141 
Q 1881 947 2072 864 
Q 2263 781 2466 781 
Q 2672 781 2865 870 
Q 3059 959 3200 1147 
z
" transform="scale(0.015625)"/>
      <path id="Tahoma-Bold-3a" d="M 1716 2281 
L 609 2281 
L 609 3509 
L 1716 3509 
L 1716 2281 
z
M 1716 0 
L 609 0 
L 609 1228 
L 1716 1228 
L 1716 0 
z
" transform="scale(0.015625)"/>
      <path id="Tahoma-Bold-36" d="M 3863 1584 
Q 3863 850 3397 376 
Q 2931 -97 2119 -97 
Q 1713 -97 1394 20 
Q 1075 138 853 366 
Q 588 634 447 1059 
Q 306 1484 306 2075 
Q 306 2688 437 3163 
Q 569 3638 866 4003 
Q 1150 4350 1609 4545 
Q 2069 4741 2697 4741 
Q 2925 4741 3154 4711 
Q 3384 4681 3469 4663 
L 3469 3747 
L 3384 3747 
Q 3303 3788 3115 3839 
Q 2928 3891 2688 3891 
Q 2141 3891 1844 3603 
Q 1547 3316 1478 2778 
Q 1706 2925 1942 3012 
Q 2178 3100 2475 3100 
Q 2725 3100 2945 3033 
Q 3166 2966 3338 2838 
Q 3578 2653 3720 2353 
Q 3863 2053 3863 1584 
z
M 2506 881 
Q 2597 994 2645 1126 
Q 2694 1259 2694 1528 
Q 2694 1753 2637 1900 
Q 2581 2047 2478 2134 
Q 2375 2222 2244 2255 
Q 2113 2288 1966 2288 
Q 1844 2288 1714 2256 
Q 1584 2225 1472 2178 
Q 1472 2147 1469 2075 
Q 1466 2003 1466 1894 
Q 1466 1494 1536 1250 
Q 1606 1006 1713 881 
Q 1794 781 1898 737 
Q 2003 694 2119 694 
Q 2213 694 2322 741 
Q 2431 788 2506 881 
z
" transform="scale(0.015625)"/>
      <path id="Tahoma-Bold-30" d="M 3831 2328 
Q 3831 1725 3734 1272 
Q 3638 819 3425 516 
Q 3213 213 2872 58 
Q 2531 -97 2038 -97 
Q 1547 -97 1206 58 
Q 866 213 650 522 
Q 438 828 341 1276 
Q 244 1725 244 2325 
Q 244 2944 339 3381 
Q 434 3819 656 4134 
Q 875 4444 1219 4595 
Q 1563 4747 2038 4747 
Q 2541 4747 2877 4589 
Q 3213 4431 3428 4119 
Q 3641 3813 3736 3363 
Q 3831 2913 3831 2328 
z
M 2659 2328 
Q 2659 3191 2517 3539 
Q 2375 3888 2038 3888 
Q 1703 3888 1559 3539 
Q 1416 3191 1416 2322 
Q 1416 1472 1559 1117 
Q 1703 763 2038 763 
Q 2372 763 2515 1117 
Q 2659 1472 2659 2328 
z
" transform="scale(0.015625)"/>
      <path id="Tahoma-Bold-31" d="M 3684 0 
L 609 0 
L 609 813 
L 1591 813 
L 1591 3272 
L 609 3272 
L 609 4031 
Q 825 4031 1037 4059 
Q 1250 4088 1378 4150 
Q 1528 4225 1611 4351 
Q 1694 4478 1706 4666 
L 2725 4666 
L 2725 813 
L 3684 813 
L 3684 0 
z
" transform="scale(0.015625)"/>
      <path id="Tahoma-Bold-33" d="M 3775 1409 
Q 3775 1069 3648 787 
Q 3522 506 3278 309 
Q 3031 113 2698 8 
Q 2366 -97 1888 -97 
Q 1344 -97 955 -6 
Q 566 84 322 197 
L 322 1206 
L 434 1206 
Q 691 1044 1036 925 
Q 1381 806 1666 806 
Q 1834 806 2032 836 
Q 2231 866 2366 966 
Q 2472 1044 2536 1158 
Q 2600 1272 2600 1481 
Q 2600 1688 2509 1798 
Q 2419 1909 2269 1959 
Q 2119 2013 1909 2019 
Q 1700 2025 1541 2025 
L 1341 2025 
L 1341 2844 
L 1525 2844 
Q 1738 2844 1916 2862 
Q 2094 2881 2219 2938 
Q 2344 2997 2414 3103 
Q 2484 3209 2484 3391 
Q 2484 3531 2418 3620 
Q 2353 3709 2256 3759 
Q 2144 3816 1994 3834 
Q 1844 3853 1738 3853 
Q 1566 3853 1387 3812 
Q 1209 3772 1041 3709 
Q 909 3659 765 3579 
Q 622 3500 553 3459 
L 456 3459 
L 456 4456 
Q 697 4559 1105 4654 
Q 1513 4750 1938 4750 
Q 2353 4750 2658 4678 
Q 2963 4606 3178 4469 
Q 3416 4322 3534 4095 
Q 3653 3869 3653 3584 
Q 3653 3188 3423 2889 
Q 3194 2591 2819 2503 
L 2819 2459 
Q 2984 2434 3142 2375 
Q 3300 2316 3450 2181 
Q 3591 2059 3683 1867 
Q 3775 1675 3775 1409 
z
" transform="scale(0.015625)"/>
     </defs>
     <use xlink:href="#Tahoma-Bold-46"/>
     <use xlink:href="#Tahoma-Bold-51" x="58.105469"/>
     <use xlink:href="#Tahoma-Bold-3a" x="135.107422"/>
     <use xlink:href="#Tahoma-Bold-36" x="171.435547"/>
     <use xlink:href="#Tahoma-Bold-30" x="235.107422"/>
     <use xlink:href="#Tahoma-Bold-31" x="298.779297"/>
     <use xlink:href="#Tahoma-Bold-33" x="362.451172"/>
     <use xlink:href="#Tahoma-Bold-30" x="426.123047"/>
    </g>
   </g>
   <g id="text_18">
    <!-- FQ:73368 -->
    <g style="fill: #a6c5d5" transform="translate(88.412524 208.005517) scale(0.08 -0.08)">
     <defs>
      <path id="Tahoma-Bold-37" d="M 3788 3728 
L 1806 0 
L 506 0 
L 2584 3775 
L 366 3775 
L 366 4653 
L 3788 4653 
L 3788 3728 
z
" transform="scale(0.015625)"/>
      <path id="Tahoma-Bold-38" d="M 3878 1297 
Q 3878 997 3754 739 
Q 3631 481 3394 294 
Q 3156 106 2814 0 
Q 2472 -106 2031 -106 
Q 1563 -106 1209 1 
Q 856 109 631 294 
Q 409 478 303 728 
Q 197 978 197 1256 
Q 197 1656 417 1922 
Q 638 2188 1056 2366 
L 1056 2384 
Q 647 2584 484 2868 
Q 322 3153 322 3503 
Q 322 3759 434 3984 
Q 547 4209 772 4388 
Q 984 4556 1311 4657 
Q 1638 4759 2044 4759 
Q 2475 4759 2795 4667 
Q 3116 4575 3322 4425 
Q 3534 4272 3646 4055 
Q 3759 3838 3759 3584 
Q 3759 3253 3567 2986 
Q 3375 2719 2978 2538 
L 2978 2519 
Q 3441 2331 3659 2026 
Q 3878 1722 3878 1297 
z
M 2628 3447 
Q 2628 3684 2472 3826 
Q 2316 3969 2047 3969 
Q 1791 3969 1633 3841 
Q 1475 3713 1475 3525 
Q 1475 3338 1570 3223 
Q 1666 3109 1866 3013 
Q 1953 2969 2073 2922 
Q 2194 2875 2394 2800 
Q 2516 2959 2572 3107 
Q 2628 3256 2628 3447 
z
M 2725 1247 
Q 2725 1475 2628 1597 
Q 2531 1719 2213 1872 
Q 2122 1916 1951 1981 
Q 1781 2047 1650 2103 
Q 1528 1981 1433 1801 
Q 1338 1622 1338 1406 
Q 1338 1081 1544 887 
Q 1750 694 2088 694 
Q 2178 694 2295 723 
Q 2413 753 2503 816 
Q 2603 888 2664 984 
Q 2725 1081 2725 1247 
z
" transform="scale(0.015625)"/>
     </defs>
     <use xlink:href="#Tahoma-Bold-46"/>
     <use xlink:href="#Tahoma-Bold-51" x="58.105469"/>
     <use xlink:href="#Tahoma-Bold-3a" x="135.107422"/>
     <use xlink:href="#Tahoma-Bold-37" x="171.435547"/>
     <use xlink:href="#Tahoma-Bold-33" x="235.107422"/>
     <use xlink:href="#Tahoma-Bold-33" x="298.779297"/>
     <use xlink:href="#Tahoma-Bold-36" x="362.451172"/>
     <use xlink:href="#Tahoma-Bold-38" x="426.123047"/>
    </g>
   </g>
   <g id="text_19">
    <!-- FQ:34762 -->
    <g style="fill: #a6c5d5" transform="translate(88.412524 161.66069) scale(0.08 -0.08)">
     <defs>
      <path id="Tahoma-Bold-34" d="M 3944 1084 
L 3316 1084 
L 3316 -13 
L 2188 -13 
L 2188 1084 
L 141 1084 
L 141 1953 
L 2150 4653 
L 3316 4653 
L 3316 1922 
L 3944 1922 
L 3944 1084 
z
M 2188 1922 
L 2188 3506 
L 1009 1922 
L 2188 1922 
z
" transform="scale(0.015625)"/>
      <path id="Tahoma-Bold-32" d="M 3891 0 
L 472 0 
L 472 759 
Q 906 1103 1251 1409 
Q 1597 1716 1859 1991 
Q 2200 2350 2353 2622 
Q 2506 2894 2506 3181 
Q 2506 3506 2312 3679 
Q 2119 3853 1772 3853 
Q 1594 3853 1436 3809 
Q 1278 3766 1116 3697 
Q 956 3625 843 3550 
Q 731 3475 675 3438 
L 584 3438 
L 584 4453 
Q 781 4547 1200 4645 
Q 1619 4744 2006 4744 
Q 2834 4744 3261 4375 
Q 3688 4006 3688 3338 
Q 3688 2925 3494 2529 
Q 3300 2134 2850 1681 
Q 2569 1403 2303 1186 
Q 2038 969 1919 878 
L 3891 878 
L 3891 0 
z
" transform="scale(0.015625)"/>
     </defs>
     <use xlink:href="#Tahoma-Bold-46"/>
     <use xlink:href="#Tahoma-Bold-51" x="58.105469"/>
     <use xlink:href="#Tahoma-Bold-3a" x="135.107422"/>
     <use xlink:href="#Tahoma-Bold-33" x="171.435547"/>
     <use xlink:href="#Tahoma-Bold-34" x="235.107422"/>
     <use xlink:href="#Tahoma-Bold-37" x="298.779297"/>
     <use xlink:href="#Tahoma-Bold-36" x="362.451172"/>
     <use xlink:href="#Tahoma-Bold-32" x="426.123047"/>
    </g>
   </g>
   <g id="text_20">
    <!-- FQ:43294 -->
    <g style="fill: #a6c5d5" transform="translate(88.412524 115.315862) scale(0.08 -0.08)">
     <defs>
      <path id="Tahoma-Bold-39" d="M 3769 2588 
Q 3769 1994 3631 1500 
Q 3494 1006 3203 653 
Q 2903 294 2458 101 
Q 2013 -91 1366 -91 
Q 1147 -91 909 -62 
Q 672 -34 594 -13 
L 594 903 
L 684 903 
Q 772 859 933 809 
Q 1094 759 1378 759 
Q 1606 759 1818 820 
Q 2031 881 2184 1013 
Q 2344 1150 2450 1356 
Q 2556 1563 2594 1872 
Q 2344 1716 2130 1633 
Q 1916 1550 1597 1550 
Q 1356 1550 1136 1614 
Q 916 1678 734 1813 
Q 494 2000 353 2295 
Q 213 2591 213 3059 
Q 213 3422 336 3730 
Q 459 4038 688 4266 
Q 913 4491 1241 4619 
Q 1569 4747 1972 4747 
Q 2378 4747 2693 4633 
Q 3009 4519 3234 4284 
Q 3497 4019 3633 3600 
Q 3769 3181 3769 2588 
z
M 2613 2763 
Q 2613 3141 2548 3386 
Q 2484 3631 2369 3769 
Q 2288 3869 2186 3912 
Q 2084 3956 1966 3956 
Q 1863 3956 1764 3914 
Q 1666 3872 1575 3769 
Q 1494 3678 1437 3503 
Q 1381 3328 1381 3119 
Q 1381 2894 1439 2748 
Q 1497 2603 1597 2516 
Q 1697 2431 1825 2397 
Q 1953 2363 2109 2363 
Q 2241 2363 2380 2398 
Q 2519 2434 2603 2472 
Q 2603 2506 2608 2570 
Q 2613 2634 2613 2763 
z
" transform="scale(0.015625)"/>
     </defs>
     <use xlink:href="#Tahoma-Bold-46"/>
     <use xlink:href="#Tahoma-Bold-51" x="58.105469"/>
     <use xlink:href="#Tahoma-Bold-3a" x="135.107422"/>
     <use xlink:href="#Tahoma-Bold-34" x="171.435547"/>
     <use xlink:href="#Tahoma-Bold-33" x="235.107422"/>
     <use xlink:href="#Tahoma-Bold-32" x="298.779297"/>
     <use xlink:href="#Tahoma-Bold-39" x="362.451172"/>
     <use xlink:href="#Tahoma-Bold-34" x="426.123047"/>
    </g>
   </g>
   <g id="text_21">
    <!-- FQ:62688 -->
    <g style="fill: #a6c5d5" transform="translate(88.412524 68.971034) scale(0.08 -0.08)">
     <use xlink:href="#Tahoma-Bold-46"/>
     <use xlink:href="#Tahoma-Bold-51" x="58.105469"/>
     <use xlink:href="#Tahoma-Bold-3a" x="135.107422"/>
     <use xlink:href="#Tahoma-Bold-36" x="171.435547"/>
     <use xlink:href="#Tahoma-Bold-32" x="235.107422"/>
     <use xlink:href="#Tahoma-Bold-36" x="298.779297"/>
     <use xlink:href="#Tahoma-Bold-38" x="362.451172"/>
     <use xlink:href="#Tahoma-Bold-38" x="426.123047"/>
    </g>
   </g>
   <g id="text_22">
    <!-- B:5692 -->
    <g style="fill: #6590a6" transform="translate(131.425558 254.350345) scale(0.08 -0.08)">
     <defs>
      <path id="Tahoma-Bold-42" d="M 4203 1425 
Q 4203 1078 4072 815 
Q 3941 553 3719 381 
Q 3456 175 3142 87 
Q 2828 0 2344 0 
L 481 0 
L 481 4653 
L 2125 4653 
Q 2638 4653 2902 4614 
Q 3166 4575 3397 4450 
Q 3647 4316 3770 4091 
Q 3894 3866 3894 3572 
Q 3894 3231 3723 2965 
Q 3553 2700 3253 2575 
L 3253 2550 
Q 3684 2459 3943 2179 
Q 4203 1900 4203 1425 
z
M 2706 3338 
Q 2706 3450 2648 3569 
Q 2591 3688 2469 3741 
Q 2353 3791 2195 3795 
Q 2038 3800 1725 3800 
L 1644 3800 
L 1644 2816 
L 1791 2816 
Q 2091 2816 2211 2822 
Q 2331 2828 2459 2888 
Q 2600 2953 2653 3068 
Q 2706 3184 2706 3338 
z
M 3000 1447 
Q 3000 1663 2912 1784 
Q 2825 1906 2650 1969 
Q 2544 2009 2358 2014 
Q 2172 2019 1859 2019 
L 1644 2019 
L 1644 853 
L 1706 853 
Q 2163 853 2338 859 
Q 2513 866 2694 944 
Q 2853 1013 2926 1145 
Q 3000 1278 3000 1447 
z
" transform="scale(0.015625)"/>
      <path id="Tahoma-Bold-35" d="M 3784 1575 
Q 3784 1213 3661 903 
Q 3538 594 3291 369 
Q 3047 147 2711 25 
Q 2375 -97 1884 -97 
Q 1366 -94 992 -8 
Q 619 78 375 184 
L 375 1200 
L 481 1200 
Q 569 1150 678 1087 
Q 788 1025 966 956 
Q 1131 891 1301 848 
Q 1472 806 1681 806 
Q 1863 806 2072 851 
Q 2281 897 2409 1016 
Q 2503 1109 2556 1225 
Q 2609 1341 2609 1534 
Q 2609 1697 2542 1814 
Q 2475 1931 2366 2003 
Q 2206 2109 1981 2139 
Q 1756 2169 1594 2169 
Q 1338 2169 1095 2128 
Q 853 2088 675 2041 
L 575 2041 
L 575 4653 
L 3656 4653 
L 3656 3775 
L 1678 3775 
L 1678 3000 
Q 1772 3006 1901 3011 
Q 2031 3016 2103 3016 
Q 2438 3016 2722 2948 
Q 3006 2881 3225 2741 
Q 3491 2569 3637 2280 
Q 3784 1991 3784 1575 
z
" transform="scale(0.015625)"/>
     </defs>
     <use xlink:href="#Tahoma-Bold-42"/>
     <use xlink:href="#Tahoma-Bold-3a" x="68.603516"/>
     <use xlink:href="#Tahoma-Bold-35" x="104.931641"/>
     <use xlink:href="#Tahoma-Bold-36" x="168.603516"/>
     <use xlink:href="#Tahoma-Bold-39" x="232.275391"/>
     <use xlink:href="#Tahoma-Bold-32" x="295.947266"/>
    </g>
   </g>
   <g id="text_23">
    <!-- B:4978 -->
    <g style="fill: #6590a6" transform="translate(131.425558 208.005517) scale(0.08 -0.08)">
     <use xlink:href="#Tahoma-Bold-42"/>
     <use xlink:href="#Tahoma-Bold-3a" x="68.603516"/>
     <use xlink:href="#Tahoma-Bold-34" x="104.931641"/>
     <use xlink:href="#Tahoma-Bold-39" x="168.603516"/>
     <use xlink:href="#Tahoma-Bold-37" x="232.275391"/>
     <use xlink:href="#Tahoma-Bold-38" x="295.947266"/>
    </g>
   </g>
   <g id="text_24">
    <!-- B:685 -->
    <g style="fill: #6590a6" transform="translate(133.972433 161.66069) scale(0.08 -0.08)">
     <use xlink:href="#Tahoma-Bold-42"/>
     <use xlink:href="#Tahoma-Bold-3a" x="68.603516"/>
     <use xlink:href="#Tahoma-Bold-36" x="104.931641"/>
     <use xlink:href="#Tahoma-Bold-38" x="168.603516"/>
     <use xlink:href="#Tahoma-Bold-35" x="232.275391"/>
    </g>
   </g>
   <g id="text_25">
    <!-- B:846 -->
    <g style="fill: #6590a6" transform="translate(133.972433 115.315862) scale(0.08 -0.08)">
     <use xlink:href="#Tahoma-Bold-42"/>
     <use xlink:href="#Tahoma-Bold-3a" x="68.603516"/>
     <use xlink:href="#Tahoma-Bold-38" x="104.931641"/>
     <use xlink:href="#Tahoma-Bold-34" x="168.603516"/>
     <use xlink:href="#Tahoma-Bold-36" x="232.275391"/>
    </g>
   </g>
   <g id="text_26">
    <!-- B:5924 -->
    <g style="fill: #6590a6" transform="translate(131.425558 68.971034) scale(0.08 -0.08)">
     <use xlink:href="#Tahoma-Bold-42"/>
     <use xlink:href="#Tahoma-Bold-3a" x="68.603516"/>
     <use xlink:href="#Tahoma-Bold-35" x="104.931641"/>
     <use xlink:href="#Tahoma-Bold-39" x="168.603516"/>
     <use xlink:href="#Tahoma-Bold-32" x="232.275391"/>
     <use xlink:href="#Tahoma-Bold-34" x="295.947266"/>
    </g>
   </g>
   <g id="text_27">
    <!-- C:6416 -->
    <g style="fill: #3b657b" transform="translate(169.306092 254.350345) scale(0.08 -0.08)">
     <defs>
      <path id="Tahoma-Bold-43" d="M 2488 -91 
Q 1441 -91 825 542 
Q 209 1175 209 2322 
Q 209 3428 826 4086 
Q 1444 4744 2491 4744 
Q 2769 4744 2991 4712 
Q 3213 4681 3416 4625 
Q 3575 4578 3762 4497 
Q 3950 4416 4066 4356 
L 4066 3247 
L 3947 3247 
Q 3863 3322 3734 3426 
Q 3606 3531 3444 3631 
Q 3281 3731 3086 3801 
Q 2891 3872 2678 3872 
Q 2425 3872 2214 3792 
Q 2003 3713 1813 3516 
Q 1638 3338 1527 3034 
Q 1416 2731 1416 2319 
Q 1416 1884 1531 1589 
Q 1647 1294 1834 1113 
Q 2016 938 2239 859 
Q 2463 781 2684 781 
Q 2916 781 3125 857 
Q 3334 934 3478 1028 
Q 3634 1125 3753 1225 
Q 3872 1325 3959 1403 
L 4066 1403 
L 4066 309 
Q 3938 250 3769 173 
Q 3600 97 3422 44 
Q 3203 -22 3012 -56 
Q 2822 -91 2488 -91 
z
" transform="scale(0.015625)"/>
     </defs>
     <use xlink:href="#Tahoma-Bold-43"/>
     <use xlink:href="#Tahoma-Bold-3a" x="66.748047"/>
     <use xlink:href="#Tahoma-Bold-36" x="103.076172"/>
     <use xlink:href="#Tahoma-Bold-34" x="166.748047"/>
     <use xlink:href="#Tahoma-Bold-31" x="230.419922"/>
     <use xlink:href="#Tahoma-Bold-36" x="294.091797"/>
    </g>
   </g>
   <g id="text_28">
    <!-- C:8810 -->
    <g style="fill: #3b657b" transform="translate(169.306092 208.005517) scale(0.08 -0.08)">
     <use xlink:href="#Tahoma-Bold-43"/>
     <use xlink:href="#Tahoma-Bold-3a" x="66.748047"/>
     <use xlink:href="#Tahoma-Bold-38" x="103.076172"/>
     <use xlink:href="#Tahoma-Bold-38" x="166.748047"/>
     <use xlink:href="#Tahoma-Bold-31" x="230.419922"/>
     <use xlink:href="#Tahoma-Bold-30" x="294.091797"/>
    </g>
   </g>
   <g id="text_29">
    <!-- C:5639 -->
    <g style="fill: #3b657b" transform="translate(169.306092 161.66069) scale(0.08 -0.08)">
     <use xlink:href="#Tahoma-Bold-43"/>
     <use xlink:href="#Tahoma-Bold-3a" x="66.748047"/>
     <use xlink:href="#Tahoma-Bold-35" x="103.076172"/>
     <use xlink:href="#Tahoma-Bold-36" x="166.748047"/>
     <use xlink:href="#Tahoma-Bold-33" x="230.419922"/>
     <use xlink:href="#Tahoma-Bold-39" x="294.091797"/>
    </g>
   </g>
   <g id="text_30">
    <!-- C:5956 -->
    <g style="fill: #3b657b" transform="translate(169.306092 115.315862) scale(0.08 -0.08)">
     <use xlink:href="#Tahoma-Bold-43"/>
     <use xlink:href="#Tahoma-Bold-3a" x="66.748047"/>
     <use xlink:href="#Tahoma-Bold-35" x="103.076172"/>
     <use xlink:href="#Tahoma-Bold-39" x="166.748047"/>
     <use xlink:href="#Tahoma-Bold-35" x="230.419922"/>
     <use xlink:href="#Tahoma-Bold-36" x="294.091797"/>
    </g>
   </g>
   <g id="text_31">
    <!-- C:5763 -->
    <g style="fill: #3b657b" transform="translate(169.306092 68.971034) scale(0.08 -0.08)">
     <use xlink:href="#Tahoma-Bold-43"/>
     <use xlink:href="#Tahoma-Bold-3a" x="66.748047"/>
     <use xlink:href="#Tahoma-Bold-35" x="103.076172"/>
     <use xlink:href="#Tahoma-Bold-37" x="166.748047"/>
     <use xlink:href="#Tahoma-Bold-36" x="230.419922"/>
     <use xlink:href="#Tahoma-Bold-33" x="294.091797"/>
    </g>
   </g>
   <g id="text_32">
    <!-- M:1089 -->
    <g style="fill: #d1bc3f" transform="translate(206.20975 254.350345) scale(0.08 -0.08)">
     <defs>
      <path id="Tahoma-Bold-4d" d="M 5234 0 
L 4072 0 
L 4072 3084 
L 3225 1094 
L 2428 1094 
L 1581 3084 
L 1581 0 
L 481 0 
L 481 4653 
L 1828 4653 
L 2859 2356 
L 3888 4653 
L 5234 4653 
L 5234 0 
z
" transform="scale(0.015625)"/>
     </defs>
     <use xlink:href="#Tahoma-Bold-4d"/>
     <use xlink:href="#Tahoma-Bold-3a" x="89.306641"/>
     <use xlink:href="#Tahoma-Bold-31" x="125.634766"/>
     <use xlink:href="#Tahoma-Bold-30" x="189.306641"/>
     <use xlink:href="#Tahoma-Bold-38" x="252.978516"/>
     <use xlink:href="#Tahoma-Bold-39" x="316.650391"/>
    </g>
   </g>
   <g id="text_33">
    <!-- M:1329 -->
    <g style="fill: #d1bc3f" transform="translate(206.20975 208.005517) scale(0.08 -0.08)">
     <use xlink:href="#Tahoma-Bold-4d"/>
     <use xlink:href="#Tahoma-Bold-3a" x="89.306641"/>
     <use xlink:href="#Tahoma-Bold-31" x="125.634766"/>
     <use xlink:href="#Tahoma-Bold-33" x="189.306641"/>
     <use xlink:href="#Tahoma-Bold-32" x="252.978516"/>
     <use xlink:href="#Tahoma-Bold-39" x="316.650391"/>
    </g>
   </g>
   <g id="text_34">
    <!-- M:1288 -->
    <g style="fill: #d1bc3f" transform="translate(206.20975 161.66069) scale(0.08 -0.08)">
     <use xlink:href="#Tahoma-Bold-4d"/>
     <use xlink:href="#Tahoma-Bold-3a" x="89.306641"/>
     <use xlink:href="#Tahoma-Bold-31" x="125.634766"/>
     <use xlink:href="#Tahoma-Bold-32" x="189.306641"/>
     <use xlink:href="#Tahoma-Bold-38" x="252.978516"/>
     <use xlink:href="#Tahoma-Bold-38" x="316.650391"/>
    </g>
   </g>
   <g id="text_35">
    <!-- M:1012 -->
    <g style="fill: #d1bc3f" transform="translate(206.20975 115.315862) scale(0.08 -0.08)">
     <use xlink:href="#Tahoma-Bold-4d"/>
     <use xlink:href="#Tahoma-Bold-3a" x="89.306641"/>
     <use xlink:href="#Tahoma-Bold-31" x="125.634766"/>
     <use xlink:href="#Tahoma-Bold-30" x="189.306641"/>
     <use xlink:href="#Tahoma-Bold-31" x="252.978516"/>
     <use xlink:href="#Tahoma-Bold-32" x="316.650391"/>
    </g>
   </g>
   <g id="text_36">
    <!-- M:971 -->
    <g style="fill: #d1bc3f" transform="translate(208.756625 68.971034) scale(0.08 -0.08)">
     <use xlink:href="#Tahoma-Bold-4d"/>
     <use xlink:href="#Tahoma-Bold-3a" x="89.306641"/>
     <use xlink:href="#Tahoma-Bold-39" x="125.634766"/>
     <use xlink:href="#Tahoma-Bold-37" x="189.306641"/>
     <use xlink:href="#Tahoma-Bold-31" x="252.978516"/>
    </g>
   </g>
   <g id="text_37">
    <!-- X:165 -->
    <g style="fill: #f95a00" transform="translate(247.397159 254.350345) scale(0.08 -0.08)">
     <defs>
      <path id="Tahoma-Bold-58" d="M 4419 0 
L 3063 0 
L 2169 1484 
L 1256 0 
L -38 0 
L 1472 2344 
L 22 4653 
L 1375 4653 
L 2213 3250 
L 3072 4653 
L 4369 4653 
L 2909 2391 
L 4419 0 
z
" transform="scale(0.015625)"/>
     </defs>
     <use xlink:href="#Tahoma-Bold-58"/>
     <use xlink:href="#Tahoma-Bold-3a" x="68.457031"/>
     <use xlink:href="#Tahoma-Bold-31" x="104.785156"/>
     <use xlink:href="#Tahoma-Bold-36" x="168.457031"/>
     <use xlink:href="#Tahoma-Bold-35" x="232.128906"/>
    </g>
   </g>
   <g id="text_38">
    <!-- X:72 -->
    <g style="fill: #f95a00" transform="translate(249.944034 208.005517) scale(0.08 -0.08)">
     <use xlink:href="#Tahoma-Bold-58"/>
     <use xlink:href="#Tahoma-Bold-3a" x="68.457031"/>
     <use xlink:href="#Tahoma-Bold-37" x="104.785156"/>
     <use xlink:href="#Tahoma-Bold-32" x="168.457031"/>
    </g>
   </g>
   <g id="text_39">
    <!-- X:136 -->
    <g style="fill: #f95a00" transform="translate(247.397159 161.66069) scale(0.08 -0.08)">
     <use xlink:href="#Tahoma-Bold-58"/>
     <use xlink:href="#Tahoma-Bold-3a" x="68.457031"/>
     <use xlink:href="#Tahoma-Bold-31" x="104.785156"/>
     <use xlink:href="#Tahoma-Bold-33" x="168.457031"/>
     <use xlink:href="#Tahoma-Bold-36" x="232.128906"/>
    </g>
   </g>
   <g id="text_40">
    <!-- X:153 -->
    <g style="fill: #f95a00" transform="translate(247.397159 115.315862) scale(0.08 -0.08)">
     <use xlink:href="#Tahoma-Bold-58"/>
     <use xlink:href="#Tahoma-Bold-3a" x="68.457031"/>
     <use xlink:href="#Tahoma-Bold-31" x="104.785156"/>
     <use xlink:href="#Tahoma-Bold-35" x="168.457031"/>
     <use xlink:href="#Tahoma-Bold-33" x="232.128906"/>
    </g>
   </g>
   <g id="text_41">
    <!-- X:19 -->
    <g style="fill: #f95a00" transform="translate(249.944034 68.971034) scale(0.08 -0.08)">
     <use xlink:href="#Tahoma-Bold-58"/>
     <use xlink:href="#Tahoma-Bold-3a" x="68.457031"/>
     <use xlink:href="#Tahoma-Bold-31" x="104.785156"/>
     <use xlink:href="#Tahoma-Bold-39" x="168.457031"/>
    </g>
   </g>
   <g id="text_42">
    <!-- Imbalanced Ratio (FQ + B + C  /  M + X) -->
    <g style="fill: #262626" transform="translate(222.715313 28.56) scale(0.12 -0.12)">
     <defs>
      <path id="Tahoma-49" d="M 2097 0 
L 291 0 
L 291 475 
L 884 475 
L 884 4178 
L 291 4178 
L 291 4653 
L 2097 4653 
L 2097 4178 
L 1503 4178 
L 1503 475 
L 2097 475 
L 2097 0 
z
" transform="scale(0.015625)"/>
      <path id="Tahoma-62" d="M 2747 1756 
Q 2747 2381 2556 2704 
Q 2366 3028 1944 3028 
Q 1703 3028 1458 2915 
Q 1213 2803 1013 2631 
L 1013 631 
Q 1234 522 1406 476 
Q 1578 431 1784 431 
Q 2234 431 2490 750 
Q 2747 1069 2747 1756 
z
M 3353 1803 
Q 3353 947 2937 425 
Q 2522 -97 1897 -97 
Q 1613 -97 1411 -26 
Q 1209 44 1013 163 
L 975 0 
L 425 0 
L 425 4863 
L 1013 4863 
L 1013 3125 
Q 1234 3325 1493 3456 
Q 1753 3588 2081 3588 
Q 2672 3588 3012 3114 
Q 3353 2641 3353 1803 
z
" transform="scale(0.015625)"/>
      <path id="Tahoma-63" d="M 1813 -78 
Q 1453 -78 1153 33 
Q 853 144 638 369 
Q 422 594 303 936 
Q 184 1278 184 1741 
Q 184 2200 307 2534 
Q 431 2869 638 3097 
Q 844 3325 1151 3448 
Q 1459 3572 1813 3572 
Q 2100 3572 2367 3490 
Q 2634 3409 2844 3303 
L 2844 2644 
L 2809 2644 
Q 2747 2697 2648 2765 
Q 2550 2834 2409 2906 
Q 2288 2969 2122 3016 
Q 1956 3063 1803 3063 
Q 1347 3063 1070 2717 
Q 794 2372 794 1741 
Q 794 1122 1061 776 
Q 1328 431 1803 431 
Q 2091 431 2350 550 
Q 2609 669 2809 856 
L 2844 856 
L 2844 197 
Q 2756 156 2625 98 
Q 2494 41 2388 13 
Q 2238 -31 2119 -54 
Q 2000 -78 1813 -78 
z
" transform="scale(0.015625)"/>
      <path id="Tahoma-64" d="M 3113 0 
L 2525 0 
L 2525 356 
Q 2388 241 2288 166 
Q 2188 91 2053 28 
Q 1928 -31 1793 -64 
Q 1659 -97 1481 -97 
Q 1197 -97 955 22 
Q 713 141 544 369 
Q 372 600 278 939 
Q 184 1278 184 1719 
Q 184 2178 303 2514 
Q 422 2850 631 3100 
Q 822 3328 1092 3458 
Q 1363 3588 1659 3588 
Q 1922 3588 2115 3530 
Q 2309 3472 2525 3350 
L 2525 4863 
L 3113 4863 
L 3113 0 
z
M 2525 850 
L 2525 2863 
Q 2306 2969 2132 3009 
Q 1959 3050 1756 3050 
Q 1303 3050 1047 2711 
Q 791 2372 791 1731 
Q 791 1116 987 789 
Q 1184 463 1619 463 
Q 1850 463 2084 567 
Q 2319 672 2525 850 
z
" transform="scale(0.015625)"/>
      <path id="Tahoma-52" d="M 4075 0 
L 3272 0 
L 1797 1850 
L 1091 1850 
L 1091 0 
L 472 0 
L 472 4653 
L 1672 4653 
Q 2072 4653 2342 4609 
Q 2613 4566 2856 4406 
Q 3100 4250 3242 4003 
Q 3384 3756 3384 3391 
Q 3384 2878 3125 2534 
Q 2866 2191 2419 2025 
L 4075 0 
z
M 2738 3344 
Q 2738 3547 2666 3705 
Q 2594 3863 2444 3963 
Q 2313 4050 2138 4086 
Q 1963 4122 1703 4122 
L 1091 4122 
L 1091 2366 
L 1634 2366 
Q 1900 2366 2112 2412 
Q 2325 2459 2475 2606 
Q 2609 2738 2673 2919 
Q 2738 3100 2738 3344 
z
" transform="scale(0.015625)"/>
      <path id="Tahoma-28" d="M 2219 -1288 
L 1503 -1288 
Q 959 -641 648 81 
Q 338 803 338 1788 
Q 338 2750 645 3483 
Q 953 4216 1503 4863 
L 2219 4863 
L 2219 4831 
Q 1966 4603 1736 4304 
Q 1506 4006 1309 3609 
Q 1122 3225 1005 2762 
Q 888 2300 888 1788 
Q 888 1253 1002 809 
Q 1116 366 1309 -34 
Q 1497 -419 1737 -730 
Q 1978 -1041 2219 -1256 
L 2219 -1288 
z
" transform="scale(0.015625)"/>
      <path id="Tahoma-46" d="M 3256 4103 
L 1091 4103 
L 1091 2791 
L 3166 2791 
L 3166 2241 
L 1091 2241 
L 1091 0 
L 472 0 
L 472 4653 
L 3256 4653 
L 3256 4103 
z
" transform="scale(0.015625)"/>
      <path id="Tahoma-51" d="M 4338 -1138 
Q 4169 -1181 3983 -1203 
Q 3797 -1225 3613 -1225 
Q 3091 -1225 2764 -931 
Q 2438 -638 2406 -94 
Q 2366 -94 2328 -94 
Q 2291 -94 2263 -94 
Q 1791 -94 1411 67 
Q 1031 228 763 538 
Q 494 847 350 1300 
Q 206 1753 206 2325 
Q 206 2913 351 3356 
Q 497 3800 766 4119 
Q 1034 4428 1414 4589 
Q 1794 4750 2263 4750 
Q 2738 4750 3119 4584 
Q 3500 4419 3763 4119 
Q 4028 3813 4175 3359 
Q 4322 2906 4322 2325 
Q 4322 1422 3969 834 
Q 3616 247 3003 38 
Q 3019 -138 3064 -277 
Q 3109 -416 3181 -497 
Q 3266 -594 3386 -639 
Q 3506 -684 3716 -684 
Q 3841 -684 4009 -645 
Q 4178 -606 4253 -575 
L 4338 -575 
L 4338 -1138 
z
M 3678 2325 
Q 3678 2788 3578 3144 
Q 3478 3500 3297 3734 
Q 3113 3975 2852 4095 
Q 2591 4216 2266 4216 
Q 1928 4216 1676 4098 
Q 1425 3981 1231 3734 
Q 1047 3497 948 3137 
Q 850 2778 850 2325 
Q 850 1409 1234 921 
Q 1619 434 2266 434 
Q 2913 434 3295 921 
Q 3678 1409 3678 2325 
z
" transform="scale(0.015625)"/>
      <path id="Tahoma-2b" d="M 4166 1788 
L 2588 1788 
L 2588 209 
L 2069 209 
L 2069 1788 
L 491 1788 
L 491 2288 
L 2069 2288 
L 2069 3866 
L 2588 3866 
L 2588 2288 
L 4166 2288 
L 4166 1788 
z
" transform="scale(0.015625)"/>
      <path id="Tahoma-42" d="M 3628 1428 
Q 3628 1081 3497 815 
Q 3366 550 3144 378 
Q 2881 172 2581 86 
Q 2281 0 1806 0 
L 472 0 
L 472 4653 
L 1706 4653 
Q 2203 4653 2451 4620 
Q 2700 4588 2928 4466 
Q 3178 4331 3293 4114 
Q 3409 3897 3409 3603 
Q 3409 3275 3236 3015 
Q 3063 2756 2756 2609 
L 2756 2584 
Q 3172 2472 3400 2173 
Q 3628 1875 3628 1428 
z
M 2766 3516 
Q 2766 3684 2709 3807 
Q 2653 3931 2528 4003 
Q 2378 4088 2193 4106 
Q 2009 4125 1684 4125 
L 1091 4125 
L 1091 2763 
L 1794 2763 
Q 2084 2763 2221 2792 
Q 2359 2822 2506 2916 
Q 2647 3006 2706 3153 
Q 2766 3300 2766 3516 
z
M 2984 1403 
Q 2984 1666 2909 1836 
Q 2834 2006 2606 2125 
Q 2459 2203 2286 2225 
Q 2113 2247 1794 2247 
L 1091 2247 
L 1091 528 
L 1594 528 
Q 2000 528 2234 565 
Q 2469 603 2647 725 
Q 2822 847 2903 1001 
Q 2984 1156 2984 1403 
z
" transform="scale(0.015625)"/>
      <path id="Tahoma-43" d="M 2291 -84 
Q 1834 -84 1451 69 
Q 1069 222 791 525 
Q 513 828 359 1281 
Q 206 1734 206 2322 
Q 206 2906 354 3340 
Q 503 3775 788 4097 
Q 1066 4409 1447 4573 
Q 1828 4738 2300 4738 
Q 2534 4738 2739 4703 
Q 2944 4669 3119 4616 
Q 3269 4569 3426 4498 
Q 3584 4428 3738 4344 
L 3738 3597 
L 3688 3597 
Q 3606 3672 3478 3778 
Q 3350 3884 3166 3988 
Q 2988 4084 2778 4146 
Q 2569 4209 2294 4209 
Q 1997 4209 1731 4087 
Q 1466 3966 1266 3728 
Q 1069 3491 959 3131 
Q 850 2772 850 2322 
Q 850 1844 965 1498 
Q 1081 1153 1281 916 
Q 1475 684 1737 567 
Q 2000 450 2294 450 
Q 2563 450 2791 515 
Q 3019 581 3197 681 
Q 3369 778 3494 879 
Q 3619 981 3691 1053 
L 3738 1053 
L 3738 316 
Q 3584 244 3448 178 
Q 3313 113 3119 50 
Q 2916 -16 2742 -50 
Q 2569 -84 2291 -84 
z
" transform="scale(0.015625)"/>
      <path id="Tahoma-2f" d="M 2275 4863 
L 453 -1013 
L -75 -1013 
L 1738 4863 
L 2275 4863 
z
" transform="scale(0.015625)"/>
      <path id="Tahoma-4d" d="M 4459 0 
L 3841 0 
L 3841 4009 
L 2628 1281 
L 2253 1281 
L 1050 4009 
L 1050 0 
L 472 0 
L 472 4653 
L 1316 4653 
L 2478 2063 
L 3600 4653 
L 4459 4653 
L 4459 0 
z
" transform="scale(0.015625)"/>
      <path id="Tahoma-58" d="M 3691 0 
L 2981 0 
L 1847 1863 
L 694 0 
L 25 0 
L 1503 2328 
L 69 4653 
L 775 4653 
L 1888 2825 
L 3016 4653 
L 3688 4653 
L 2231 2359 
L 3691 0 
z
" transform="scale(0.015625)"/>
      <path id="Tahoma-29" d="M 2113 1788 
Q 2113 822 1803 90 
Q 1494 -641 947 -1288 
L 231 -1288 
L 231 -1256 
Q 472 -1041 715 -727 
Q 959 -413 1141 -34 
Q 1334 369 1448 817 
Q 1563 1266 1563 1788 
Q 1563 2303 1447 2762 
Q 1331 3222 1141 3609 
Q 950 3997 709 4306 
Q 469 4616 231 4831 
L 231 4863 
L 947 4863 
Q 1491 4216 1802 3487 
Q 2113 2759 2113 1788 
z
" transform="scale(0.015625)"/>
     </defs>
     <use xlink:href="#Tahoma-49"/>
     <use xlink:href="#Tahoma-6d" x="36.804688"/>
     <use xlink:href="#Tahoma-62" x="120.789062"/>
     <use xlink:href="#Tahoma-61" x="176.0625"/>
     <use xlink:href="#Tahoma-6c" x="228.552734"/>
     <use xlink:href="#Tahoma-61" x="251.404297"/>
     <use xlink:href="#Tahoma-6e" x="303.894531"/>
     <use xlink:href="#Tahoma-63" x="359.65625"/>
     <use xlink:href="#Tahoma-65" x="405.798828"/>
     <use xlink:href="#Tahoma-64" x="458.435547"/>
     <use xlink:href="#Tahoma-20" x="513.708984"/>
     <use xlink:href="#Tahoma-52" x="544.958984"/>
     <use xlink:href="#Tahoma-61" x="606.144531"/>
     <use xlink:href="#Tahoma-74" x="658.634766"/>
     <use xlink:href="#Tahoma-69" x="692.082031"/>
     <use xlink:href="#Tahoma-6f" x="714.933594"/>
     <use xlink:href="#Tahoma-20" x="769.230469"/>
     <use xlink:href="#Tahoma-28" x="800.480469"/>
     <use xlink:href="#Tahoma-46" x="838.761719"/>
     <use xlink:href="#Tahoma-51" x="890.910156"/>
     <use xlink:href="#Tahoma-20" x="961.662109"/>
     <use xlink:href="#Tahoma-2b" x="992.912109"/>
     <use xlink:href="#Tahoma-20" x="1065.666016"/>
     <use xlink:href="#Tahoma-42" x="1096.916016"/>
     <use xlink:href="#Tahoma-20" x="1155.851562"/>
     <use xlink:href="#Tahoma-2b" x="1187.101562"/>
     <use xlink:href="#Tahoma-20" x="1259.855469"/>
     <use xlink:href="#Tahoma-43" x="1291.105469"/>
     <use xlink:href="#Tahoma-20" x="1351.164062"/>
     <use xlink:href="#Tahoma-20" x="1382.414062"/>
     <use xlink:href="#Tahoma-2f" x="1413.664062"/>
     <use xlink:href="#Tahoma-20" x="1451.896484"/>
     <use xlink:href="#Tahoma-20" x="1483.146484"/>
     <use xlink:href="#Tahoma-4d" x="1514.396484"/>
     <use xlink:href="#Tahoma-20" x="1591.447266"/>
     <use xlink:href="#Tahoma-2b" x="1622.697266"/>
     <use xlink:href="#Tahoma-20" x="1695.451172"/>
     <use xlink:href="#Tahoma-58" x="1726.701172"/>
     <use xlink:href="#Tahoma-29" x="1784.757812"/>
    </g>
   </g>
  </g>
 </g>
 <defs>
  <clipPath id="p845f60f004">
   <rect x="81" y="34.56" width="502.2" height="221.76"/>
  </clipPath>
 </defs>
</svg>
