<?xml version="1.0" encoding="utf-8" standalone="no"?>
<!DOCTYPE svg PUBLIC "-//W3C//DTD SVG 1.1//EN"
  "http://www.w3.org/Graphics/SVG/1.1/DTD/svg11.dtd">
<svg xmlns:xlink="http://www.w3.org/1999/xlink" width="504pt" height="216pt" viewBox="0 0 504 216" xmlns="http://www.w3.org/2000/svg" version="1.1">
 <metadata>
  <rdf:RDF xmlns:dc="http://purl.org/dc/elements/1.1/" xmlns:cc="http://creativecommons.org/ns#" xmlns:rdf="http://www.w3.org/1999/02/22-rdf-syntax-ns#">
   <cc:Work>
    <dc:type rdf:resource="http://purl.org/dc/dcmitype/StillImage"/>
    <dc:date>2023-11-27T16:00:30.631346</dc:date>
    <dc:format>image/svg+xml</dc:format>
    <dc:creator>
     <cc:Agent>
      <dc:title>Matplotlib v3.7.1, https://matplotlib.org/</dc:title>
     </cc:Agent>
    </dc:creator>
   </cc:Work>
  </rdf:RDF>
 </metadata>
 <defs>
  <style type="text/css">*{stroke-linejoin: round; stroke-linecap: butt}</style>
 </defs>
 <g id="figure_1">
  <g id="patch_1">
   <path d="M 0 216 
L 504 216 
L 504 0 
L 0 0 
z
" style="fill: #ffffff"/>
  </g>
  <g id="axes_1">
   <g id="patch_2">
    <path d="M 63 192.24 
L 453.6 192.24 
L 453.6 25.92 
L 63 25.92 
z
" style="fill: #eaeaf2"/>
   </g>
   <g id="matplotlib.axis_1">
    <g id="xtick_1">
     <g id="line2d_1">
      <path d="M 63 192.24 
L 63 25.92 
" clip-path="url(#p7efd55608b)" style="fill: none; stroke: #ffffff; stroke-linecap: round"/>
     </g>
     <g id="text_1">
      <!-- 0 -->
      <g style="fill: #262626" transform="translate(60.270313 206.838437) scale(0.1 -0.1)">
       <defs>
        <path id="Tahoma-30" d="M 3234 2328 
Q 3234 1075 2870 489 
Q 2506 -97 1747 -97 
Q 978 -97 618 500 
Q 259 1097 259 2322 
Q 259 3581 623 4164 
Q 988 4747 1747 4747 
Q 2516 4747 2875 4144 
Q 3234 3541 3234 2328 
z
M 2434 909 
Q 2525 1141 2562 1494 
Q 2600 1847 2600 2328 
Q 2600 2806 2562 3159 
Q 2525 3513 2431 3747 
Q 2338 3984 2173 4107 
Q 2009 4231 1747 4231 
Q 1488 4231 1320 4107 
Q 1153 3984 1056 3741 
Q 963 3503 928 3140 
Q 894 2778 894 2322 
Q 894 1834 923 1506 
Q 953 1178 1053 919 
Q 1144 678 1311 548 
Q 1478 419 1747 419 
Q 2006 419 2173 542 
Q 2341 666 2434 909 
z
" transform="scale(0.015625)"/>
       </defs>
       <use xlink:href="#Tahoma-30"/>
      </g>
     </g>
    </g>
    <g id="xtick_2">
     <g id="line2d_2">
      <path d="M 111.825 192.24 
L 111.825 25.92 
" clip-path="url(#p7efd55608b)" style="fill: none; stroke: #ffffff; stroke-linecap: round"/>
     </g>
     <g id="text_2">
      <!-- 25000 -->
      <g style="fill: #262626" transform="translate(98.176563 206.838437) scale(0.1 -0.1)">
       <defs>
        <path id="Tahoma-32" d="M 3213 0 
L 341 0 
L 341 653 
Q 650 947 925 1215 
Q 1200 1484 1463 1775 
Q 1994 2359 2187 2711 
Q 2381 3063 2381 3438 
Q 2381 3631 2320 3778 
Q 2259 3925 2153 4022 
Q 2044 4116 1900 4162 
Q 1756 4209 1584 4209 
Q 1419 4209 1248 4167 
Q 1078 4125 922 4063 
Q 791 4009 669 3934 
Q 547 3859 472 3806 
L 438 3806 
L 438 4469 
Q 631 4566 976 4658 
Q 1322 4750 1631 4750 
Q 2281 4750 2650 4404 
Q 3019 4059 3019 3469 
Q 3019 3197 2955 2965 
Q 2891 2734 2778 2538 
Q 2663 2334 2500 2134 
Q 2338 1934 2156 1741 
Q 1863 1422 1502 1078 
Q 1141 734 925 534 
L 3213 534 
L 3213 0 
z
" transform="scale(0.015625)"/>
        <path id="Tahoma-35" d="M 3159 1481 
Q 3159 1144 3051 856 
Q 2944 569 2750 359 
Q 2553 147 2261 25 
Q 1969 -97 1606 -97 
Q 1272 -97 948 -23 
Q 625 50 388 169 
L 388 828 
L 431 828 
Q 503 775 637 708 
Q 772 641 934 581 
Q 1119 516 1272 480 
Q 1425 444 1616 444 
Q 1803 444 1981 511 
Q 2159 578 2288 728 
Q 2403 866 2464 1050 
Q 2525 1234 2525 1484 
Q 2525 1731 2458 1890 
Q 2391 2050 2263 2153 
Q 2128 2272 1933 2320 
Q 1738 2369 1497 2369 
Q 1244 2369 987 2330 
Q 731 2291 578 2256 
L 578 4653 
L 3131 4653 
L 3131 4106 
L 1181 4106 
L 1181 2869 
Q 1294 2881 1403 2887 
Q 1513 2894 1603 2894 
Q 1959 2894 2206 2834 
Q 2453 2775 2681 2603 
Q 2913 2428 3036 2165 
Q 3159 1903 3159 1481 
z
" transform="scale(0.015625)"/>
       </defs>
       <use xlink:href="#Tahoma-32"/>
       <use xlink:href="#Tahoma-35" x="54.589844"/>
       <use xlink:href="#Tahoma-30" x="109.179688"/>
       <use xlink:href="#Tahoma-30" x="163.769531"/>
       <use xlink:href="#Tahoma-30" x="218.359375"/>
      </g>
     </g>
    </g>
    <g id="xtick_3">
     <g id="line2d_3">
      <path d="M 160.65 192.24 
L 160.65 25.92 
" clip-path="url(#p7efd55608b)" style="fill: none; stroke: #ffffff; stroke-linecap: round"/>
     </g>
     <g id="text_3">
      <!-- 50000 -->
      <g style="fill: #262626" transform="translate(147.001563 206.838437) scale(0.1 -0.1)">
       <use xlink:href="#Tahoma-35"/>
       <use xlink:href="#Tahoma-30" x="54.589844"/>
       <use xlink:href="#Tahoma-30" x="109.179688"/>
       <use xlink:href="#Tahoma-30" x="163.769531"/>
       <use xlink:href="#Tahoma-30" x="218.359375"/>
      </g>
     </g>
    </g>
    <g id="xtick_4">
     <g id="line2d_4">
      <path d="M 209.475 192.24 
L 209.475 25.92 
" clip-path="url(#p7efd55608b)" style="fill: none; stroke: #ffffff; stroke-linecap: round"/>
     </g>
     <g id="text_4">
      <!-- 75000 -->
      <g style="fill: #262626" transform="translate(195.826563 206.838437) scale(0.1 -0.1)">
       <defs>
        <path id="Tahoma-37" d="M 3263 3956 
L 1250 0 
L 584 0 
L 2716 4106 
L 309 4106 
L 309 4653 
L 3263 4653 
L 3263 3956 
z
" transform="scale(0.015625)"/>
       </defs>
       <use xlink:href="#Tahoma-37"/>
       <use xlink:href="#Tahoma-35" x="54.589844"/>
       <use xlink:href="#Tahoma-30" x="109.179688"/>
       <use xlink:href="#Tahoma-30" x="163.769531"/>
       <use xlink:href="#Tahoma-30" x="218.359375"/>
      </g>
     </g>
    </g>
    <g id="xtick_5">
     <g id="line2d_5">
      <path d="M 258.3 192.24 
L 258.3 25.92 
" clip-path="url(#p7efd55608b)" style="fill: none; stroke: #ffffff; stroke-linecap: round"/>
     </g>
     <g id="text_5">
      <!-- 100000 -->
      <g style="fill: #262626" transform="translate(241.921875 206.838437) scale(0.1 -0.1)">
       <defs>
        <path id="Tahoma-31" d="M 2975 0 
L 706 0 
L 706 475 
L 1550 475 
L 1550 3594 
L 706 3594 
L 706 4019 
Q 1184 4019 1411 4155 
Q 1638 4291 1666 4669 
L 2150 4669 
L 2150 475 
L 2975 475 
L 2975 0 
z
" transform="scale(0.015625)"/>
       </defs>
       <use xlink:href="#Tahoma-31"/>
       <use xlink:href="#Tahoma-30" x="54.589844"/>
       <use xlink:href="#Tahoma-30" x="109.179688"/>
       <use xlink:href="#Tahoma-30" x="163.769531"/>
       <use xlink:href="#Tahoma-30" x="218.359375"/>
       <use xlink:href="#Tahoma-30" x="272.949219"/>
      </g>
     </g>
    </g>
    <g id="xtick_6">
     <g id="line2d_6">
      <path d="M 307.125 192.24 
L 307.125 25.92 
" clip-path="url(#p7efd55608b)" style="fill: none; stroke: #ffffff; stroke-linecap: round"/>
     </g>
     <g id="text_6">
      <!-- 125000 -->
      <g style="fill: #262626" transform="translate(290.746875 206.838437) scale(0.1 -0.1)">
       <use xlink:href="#Tahoma-31"/>
       <use xlink:href="#Tahoma-32" x="54.589844"/>
       <use xlink:href="#Tahoma-35" x="109.179688"/>
       <use xlink:href="#Tahoma-30" x="163.769531"/>
       <use xlink:href="#Tahoma-30" x="218.359375"/>
       <use xlink:href="#Tahoma-30" x="272.949219"/>
      </g>
     </g>
    </g>
    <g id="xtick_7">
     <g id="line2d_7">
      <path d="M 355.95 192.24 
L 355.95 25.92 
" clip-path="url(#p7efd55608b)" style="fill: none; stroke: #ffffff; stroke-linecap: round"/>
     </g>
     <g id="text_7">
      <!-- 150000 -->
      <g style="fill: #262626" transform="translate(339.571875 206.838437) scale(0.1 -0.1)">
       <use xlink:href="#Tahoma-31"/>
       <use xlink:href="#Tahoma-35" x="54.589844"/>
       <use xlink:href="#Tahoma-30" x="109.179688"/>
       <use xlink:href="#Tahoma-30" x="163.769531"/>
       <use xlink:href="#Tahoma-30" x="218.359375"/>
       <use xlink:href="#Tahoma-30" x="272.949219"/>
      </g>
     </g>
    </g>
    <g id="xtick_8">
     <g id="line2d_8">
      <path d="M 404.775 192.24 
L 404.775 25.92 
" clip-path="url(#p7efd55608b)" style="fill: none; stroke: #ffffff; stroke-linecap: round"/>
     </g>
     <g id="text_8">
      <!-- 175000 -->
      <g style="fill: #262626" transform="translate(388.396875 206.838437) scale(0.1 -0.1)">
       <use xlink:href="#Tahoma-31"/>
       <use xlink:href="#Tahoma-37" x="54.589844"/>
       <use xlink:href="#Tahoma-35" x="109.179688"/>
       <use xlink:href="#Tahoma-30" x="163.769531"/>
       <use xlink:href="#Tahoma-30" x="218.359375"/>
       <use xlink:href="#Tahoma-30" x="272.949219"/>
      </g>
     </g>
    </g>
    <g id="xtick_9">
     <g id="line2d_9">
      <path d="M 453.6 192.24 
L 453.6 25.92 
" clip-path="url(#p7efd55608b)" style="fill: none; stroke: #ffffff; stroke-linecap: round"/>
     </g>
     <g id="text_9">
      <!-- 200000 -->
      <g style="fill: #262626" transform="translate(437.221875 206.838437) scale(0.1 -0.1)">
       <use xlink:href="#Tahoma-32"/>
       <use xlink:href="#Tahoma-30" x="54.589844"/>
       <use xlink:href="#Tahoma-30" x="109.179688"/>
       <use xlink:href="#Tahoma-30" x="163.769531"/>
       <use xlink:href="#Tahoma-30" x="218.359375"/>
       <use xlink:href="#Tahoma-30" x="272.949219"/>
      </g>
     </g>
    </g>
    <g id="text_10">
     <!-- Sample Size -->
     <g style="fill: #262626" transform="translate(229.184375 221.209219) scale(0.11 -0.11)">
      <defs>
       <path id="Tahoma-53" d="M 1769 -84 
Q 1263 -84 908 20 
Q 553 125 241 278 
L 241 1053 
L 284 1053 
Q 591 766 978 608 
Q 1366 450 1725 450 
Q 2238 450 2500 664 
Q 2763 878 2763 1228 
Q 2763 1506 2625 1681 
Q 2488 1856 2188 1941 
Q 1972 2003 1794 2043 
Q 1616 2084 1347 2153 
Q 1106 2216 915 2312 
Q 725 2409 578 2566 
Q 434 2719 354 2926 
Q 275 3134 275 3406 
Q 275 3972 715 4355 
Q 1156 4738 1841 4738 
Q 2231 4738 2579 4659 
Q 2928 4581 3225 4438 
L 3225 3697 
L 3178 3697 
Q 2956 3900 2609 4051 
Q 2263 4203 1881 4203 
Q 1450 4203 1184 4001 
Q 919 3800 919 3472 
Q 919 3175 1075 3000 
Q 1231 2825 1528 2744 
Q 1725 2691 2009 2623 
Q 2294 2556 2481 2500 
Q 2963 2353 3184 2056 
Q 3406 1759 3406 1325 
Q 3406 1053 3295 787 
Q 3184 522 2984 338 
Q 2759 134 2476 25 
Q 2194 -84 1769 -84 
z
" transform="scale(0.015625)"/>
       <path id="Tahoma-61" d="M 2375 859 
L 2375 1828 
Q 2166 1809 1845 1776 
Q 1525 1744 1328 1684 
Q 1094 1613 941 1464 
Q 788 1316 788 1050 
Q 788 750 956 597 
Q 1125 444 1450 444 
Q 1728 444 1953 564 
Q 2178 684 2375 859 
z
M 2375 372 
Q 2303 319 2183 223 
Q 2063 128 1950 72 
Q 1794 -9 1648 -53 
Q 1503 -97 1241 -97 
Q 1025 -97 831 -15 
Q 638 66 491 213 
Q 350 356 265 567 
Q 181 778 181 1013 
Q 181 1375 334 1629 
Q 488 1884 819 2034 
Q 1113 2169 1513 2220 
Q 1913 2272 2375 2297 
L 2375 2409 
Q 2375 2616 2312 2742 
Q 2250 2869 2138 2938 
Q 2025 3009 1862 3032 
Q 1700 3056 1528 3056 
Q 1325 3056 1050 2995 
Q 775 2934 500 2819 
L 466 2819 
L 466 3416 
Q 628 3463 931 3519 
Q 1234 3575 1531 3575 
Q 1891 3575 2137 3519 
Q 2384 3463 2581 3316 
Q 2772 3172 2865 2944 
Q 2959 2716 2959 2388 
L 2959 0 
L 2375 0 
L 2375 372 
z
" transform="scale(0.015625)"/>
       <path id="Tahoma-6d" d="M 4388 0 
L 4388 2019 
Q 4388 2259 4369 2464 
Q 4350 2669 4291 2784 
Q 4228 2909 4112 2968 
Q 3997 3028 3800 3028 
Q 3619 3028 3411 2917 
Q 3203 2806 2981 2597 
Q 2984 2544 2989 2470 
Q 2994 2397 2994 2297 
L 2994 0 
L 2406 0 
L 2406 2019 
Q 2406 2259 2387 2464 
Q 2369 2669 2309 2784 
Q 2247 2909 2131 2968 
Q 2016 3028 1819 3028 
Q 1628 3028 1418 2909 
Q 1209 2791 1013 2606 
L 1013 0 
L 425 0 
L 425 3491 
L 1013 3491 
L 1013 3103 
Q 1244 3334 1470 3461 
Q 1697 3588 1969 3588 
Q 2278 3588 2517 3447 
Q 2756 3306 2881 2984 
Q 3147 3281 3400 3434 
Q 3653 3588 3950 3588 
Q 4175 3588 4359 3517 
Q 4544 3447 4681 3291 
Q 4822 3131 4898 2893 
Q 4975 2656 4975 2297 
L 4975 0 
L 4388 0 
z
" transform="scale(0.015625)"/>
       <path id="Tahoma-70" d="M 3353 1838 
Q 3353 966 2936 448 
Q 2519 -69 1881 -69 
Q 1622 -69 1422 -9 
Q 1222 50 1013 175 
L 1013 -1288 
L 425 -1288 
L 425 3491 
L 1013 3491 
L 1013 3125 
Q 1231 3322 1498 3455 
Q 1766 3588 2081 3588 
Q 2681 3588 3017 3113 
Q 3353 2638 3353 1838 
z
M 2747 1772 
Q 2747 2369 2556 2698 
Q 2366 3028 1938 3028 
Q 1688 3028 1455 2917 
Q 1222 2806 1013 2631 
L 1013 653 
Q 1244 541 1408 500 
Q 1572 459 1784 459 
Q 2241 459 2494 793 
Q 2747 1128 2747 1772 
z
" transform="scale(0.015625)"/>
       <path id="Tahoma-6c" d="M 1025 0 
L 438 0 
L 438 4863 
L 1025 4863 
L 1025 0 
z
" transform="scale(0.015625)"/>
       <path id="Tahoma-65" d="M 1941 -81 
Q 1106 -81 645 389 
Q 184 859 184 1725 
Q 184 2578 631 3083 
Q 1078 3588 1800 3588 
Q 2125 3588 2375 3494 
Q 2625 3400 2813 3200 
Q 3000 3000 3100 2711 
Q 3200 2422 3200 2003 
L 3200 1684 
L 781 1684 
Q 781 1075 1087 753 
Q 1394 431 1934 431 
Q 2128 431 2314 475 
Q 2500 519 2650 588 
Q 2809 659 2918 726 
Q 3028 794 3100 853 
L 3134 853 
L 3134 213 
Q 3031 172 2878 111 
Q 2725 50 2603 16 
Q 2431 -31 2292 -56 
Q 2153 -81 1941 -81 
z
M 2628 2134 
Q 2622 2372 2572 2544 
Q 2522 2716 2428 2834 
Q 2325 2966 2164 3034 
Q 2003 3103 1766 3103 
Q 1531 3103 1367 3033 
Q 1203 2963 1069 2828 
Q 938 2691 869 2523 
Q 800 2356 781 2134 
L 2628 2134 
z
" transform="scale(0.015625)"/>
       <path id="Tahoma-20" transform="scale(0.015625)"/>
       <path id="Tahoma-69" d="M 1025 0 
L 438 0 
L 438 3491 
L 1025 3491 
L 1025 0 
z
M 1066 4075 
L 397 4075 
L 397 4684 
L 1066 4684 
L 1066 4075 
z
" transform="scale(0.015625)"/>
       <path id="Tahoma-7a" d="M 2719 0 
L 153 0 
L 153 434 
L 1978 3006 
L 228 3006 
L 228 3491 
L 2684 3491 
L 2684 3072 
L 850 491 
L 2719 491 
L 2719 0 
z
" transform="scale(0.015625)"/>
      </defs>
      <use xlink:href="#Tahoma-53"/>
      <use xlink:href="#Tahoma-61" x="55.712891"/>
      <use xlink:href="#Tahoma-6d" x="108.203125"/>
      <use xlink:href="#Tahoma-70" x="192.1875"/>
      <use xlink:href="#Tahoma-6c" x="247.460938"/>
      <use xlink:href="#Tahoma-65" x="270.3125"/>
      <use xlink:href="#Tahoma-20" x="322.949219"/>
      <use xlink:href="#Tahoma-53" x="354.199219"/>
      <use xlink:href="#Tahoma-69" x="409.912109"/>
      <use xlink:href="#Tahoma-7a" x="432.763672"/>
      <use xlink:href="#Tahoma-65" x="476.697266"/>
     </g>
    </g>
   </g>
   <g id="matplotlib.axis_2">
    <g id="ytick_1">
     <g id="line2d_10">
      <path d="M 63 178.597241 
L 453.6 178.597241 
" clip-path="url(#p7efd55608b)" style="fill: none; stroke: #ffffff; stroke-linecap: round"/>
     </g>
     <g id="text_11">
      <!-- Partition1 -->
      <g style="fill: #262626" transform="translate(14.107812 182.39646) scale(0.1 -0.1)">
       <defs>
        <path id="Tahoma-50" d="M 3409 3250 
Q 3409 2947 3301 2676 
Q 3194 2406 3003 2216 
Q 2763 1978 2438 1856 
Q 2113 1734 1616 1734 
L 1091 1734 
L 1091 0 
L 472 0 
L 472 4653 
L 1641 4653 
Q 2053 4653 2343 4584 
Q 2634 4516 2856 4363 
Q 3116 4184 3262 3911 
Q 3409 3638 3409 3250 
z
M 2766 3234 
Q 2766 3475 2683 3653 
Q 2600 3831 2431 3944 
Q 2284 4041 2089 4081 
Q 1894 4122 1603 4122 
L 1091 4122 
L 1091 2263 
L 1513 2263 
Q 1888 2263 2119 2323 
Q 2350 2384 2503 2541 
Q 2641 2681 2703 2847 
Q 2766 3013 2766 3234 
z
" transform="scale(0.015625)"/>
        <path id="Tahoma-72" d="M 2275 2859 
L 2244 2859 
Q 2178 2878 2104 2883 
Q 2031 2888 1928 2888 
Q 1691 2888 1456 2784 
Q 1222 2681 1013 2478 
L 1013 0 
L 425 0 
L 425 3491 
L 1013 3491 
L 1013 2972 
Q 1334 3256 1573 3373 
Q 1813 3491 2038 3491 
Q 2128 3491 2173 3486 
Q 2219 3481 2275 3472 
L 2275 2859 
z
" transform="scale(0.015625)"/>
        <path id="Tahoma-74" d="M 1481 -69 
Q 1000 -69 731 204 
Q 463 478 463 1069 
L 463 3003 
L 66 3003 
L 66 3491 
L 463 3491 
L 463 4494 
L 1050 4494 
L 1050 3491 
L 2131 3491 
L 2131 3003 
L 1050 3003 
L 1050 1344 
Q 1050 1078 1059 934 
Q 1069 791 1131 666 
Q 1184 556 1303 501 
Q 1422 447 1625 447 
Q 1769 447 1903 489 
Q 2038 531 2097 559 
L 2131 559 
L 2131 31 
Q 1966 -16 1795 -42 
Q 1625 -69 1481 -69 
z
" transform="scale(0.015625)"/>
        <path id="Tahoma-6f" d="M 3297 1744 
Q 3297 863 2872 383 
Q 2447 -97 1741 -97 
Q 1013 -97 595 398 
Q 178 894 178 1744 
Q 178 2619 608 3103 
Q 1038 3588 1741 3588 
Q 2447 3588 2872 3105 
Q 3297 2622 3297 1744 
z
M 2691 1744 
Q 2691 2422 2444 2751 
Q 2197 3081 1741 3081 
Q 1281 3081 1032 2751 
Q 784 2422 784 1744 
Q 784 1088 1032 748 
Q 1281 409 1741 409 
Q 2194 409 2442 742 
Q 2691 1075 2691 1744 
z
" transform="scale(0.015625)"/>
        <path id="Tahoma-6e" d="M 3169 0 
L 2581 0 
L 2581 1988 
Q 2581 2228 2557 2436 
Q 2534 2644 2469 2769 
Q 2397 2900 2269 2964 
Q 2141 3028 1919 3028 
Q 1700 3028 1467 2911 
Q 1234 2794 1013 2606 
L 1013 0 
L 425 0 
L 425 3491 
L 1013 3491 
L 1013 3103 
Q 1275 3338 1531 3463 
Q 1788 3588 2072 3588 
Q 2588 3588 2878 3248 
Q 3169 2909 3169 2266 
L 3169 0 
z
" transform="scale(0.015625)"/>
       </defs>
       <use xlink:href="#Tahoma-50"/>
       <use xlink:href="#Tahoma-61" x="52.876953"/>
       <use xlink:href="#Tahoma-72" x="105.367188"/>
       <use xlink:href="#Tahoma-74" x="141.402344"/>
       <use xlink:href="#Tahoma-69" x="174.849609"/>
       <use xlink:href="#Tahoma-74" x="197.951172"/>
       <use xlink:href="#Tahoma-69" x="231.398438"/>
       <use xlink:href="#Tahoma-6f" x="254.25"/>
       <use xlink:href="#Tahoma-6e" x="308.546875"/>
       <use xlink:href="#Tahoma-31" x="364.308594"/>
      </g>
     </g>
    </g>
    <g id="ytick_2">
     <g id="line2d_11">
      <path d="M 63 143.838621 
L 453.6 143.838621 
" clip-path="url(#p7efd55608b)" style="fill: none; stroke: #ffffff; stroke-linecap: round"/>
     </g>
     <g id="text_12">
      <!-- Partition2 -->
      <g style="fill: #262626" transform="translate(14.107812 147.637839) scale(0.1 -0.1)">
       <use xlink:href="#Tahoma-50"/>
       <use xlink:href="#Tahoma-61" x="52.876953"/>
       <use xlink:href="#Tahoma-72" x="105.367188"/>
       <use xlink:href="#Tahoma-74" x="141.402344"/>
       <use xlink:href="#Tahoma-69" x="174.849609"/>
       <use xlink:href="#Tahoma-74" x="197.951172"/>
       <use xlink:href="#Tahoma-69" x="231.398438"/>
       <use xlink:href="#Tahoma-6f" x="254.25"/>
       <use xlink:href="#Tahoma-6e" x="308.546875"/>
       <use xlink:href="#Tahoma-32" x="364.308594"/>
      </g>
     </g>
    </g>
    <g id="ytick_3">
     <g id="line2d_12">
      <path d="M 63 109.08 
L 453.6 109.08 
" clip-path="url(#p7efd55608b)" style="fill: none; stroke: #ffffff; stroke-linecap: round"/>
     </g>
     <g id="text_13">
      <!-- Partition3 -->
      <g style="fill: #262626" transform="translate(14.107812 112.879219) scale(0.1 -0.1)">
       <defs>
        <path id="Tahoma-33" d="M 1597 4209 
Q 1428 4209 1259 4168 
Q 1091 4128 928 4063 
Q 778 4000 667 3931 
Q 556 3863 469 3803 
L 431 3803 
L 431 4463 
Q 634 4572 982 4661 
Q 1331 4750 1647 4750 
Q 1963 4750 2198 4686 
Q 2434 4622 2625 4488 
Q 2831 4338 2936 4125 
Q 3041 3913 3041 3628 
Q 3041 3244 2787 2953 
Q 2534 2663 2181 2584 
L 2181 2541 
Q 2328 2513 2495 2444 
Q 2663 2375 2806 2241 
Q 2950 2106 3040 1895 
Q 3131 1684 3131 1381 
Q 3131 1066 3023 802 
Q 2916 538 2719 334 
Q 2516 122 2228 12 
Q 1941 -97 1575 -97 
Q 1225 -97 881 -12 
Q 538 72 303 191 
L 303 850 
L 347 850 
Q 544 706 875 575 
Q 1206 444 1538 444 
Q 1728 444 1920 505 
Q 2113 566 2241 703 
Q 2366 841 2431 1006 
Q 2497 1172 2497 1425 
Q 2497 1678 2423 1840 
Q 2350 2003 2219 2097 
Q 2088 2191 1908 2227 
Q 1728 2263 1519 2263 
L 1253 2263 
L 1253 2781 
L 1459 2781 
Q 1881 2781 2145 2981 
Q 2409 3181 2409 3563 
Q 2409 3738 2340 3864 
Q 2272 3991 2166 4066 
Q 2047 4147 1903 4178 
Q 1759 4209 1597 4209 
z
" transform="scale(0.015625)"/>
       </defs>
       <use xlink:href="#Tahoma-50"/>
       <use xlink:href="#Tahoma-61" x="52.876953"/>
       <use xlink:href="#Tahoma-72" x="105.367188"/>
       <use xlink:href="#Tahoma-74" x="141.402344"/>
       <use xlink:href="#Tahoma-69" x="174.849609"/>
       <use xlink:href="#Tahoma-74" x="197.951172"/>
       <use xlink:href="#Tahoma-69" x="231.398438"/>
       <use xlink:href="#Tahoma-6f" x="254.25"/>
       <use xlink:href="#Tahoma-6e" x="308.546875"/>
       <use xlink:href="#Tahoma-33" x="364.308594"/>
      </g>
     </g>
    </g>
    <g id="ytick_4">
     <g id="line2d_13">
      <path d="M 63 74.321379 
L 453.6 74.321379 
" clip-path="url(#p7efd55608b)" style="fill: none; stroke: #ffffff; stroke-linecap: round"/>
     </g>
     <g id="text_14">
      <!-- Partition4 -->
      <g style="fill: #262626" transform="translate(14.107812 78.120598) scale(0.1 -0.1)">
       <defs>
        <path id="Tahoma-34" d="M 3334 1600 
L 2781 1600 
L 2781 0 
L 2181 0 
L 2181 1600 
L 125 1600 
L 125 2256 
L 2206 4653 
L 2781 4653 
L 2781 2100 
L 3334 2100 
L 3334 1600 
z
M 2181 2100 
L 2181 3919 
L 613 2100 
L 2181 2100 
z
" transform="scale(0.015625)"/>
       </defs>
       <use xlink:href="#Tahoma-50"/>
       <use xlink:href="#Tahoma-61" x="52.876953"/>
       <use xlink:href="#Tahoma-72" x="105.367188"/>
       <use xlink:href="#Tahoma-74" x="141.402344"/>
       <use xlink:href="#Tahoma-69" x="174.849609"/>
       <use xlink:href="#Tahoma-74" x="197.951172"/>
       <use xlink:href="#Tahoma-69" x="231.398438"/>
       <use xlink:href="#Tahoma-6f" x="254.25"/>
       <use xlink:href="#Tahoma-6e" x="308.546875"/>
       <use xlink:href="#Tahoma-34" x="364.308594"/>
      </g>
     </g>
    </g>
    <g id="ytick_5">
     <g id="line2d_14">
      <path d="M 63 39.562759 
L 453.6 39.562759 
" clip-path="url(#p7efd55608b)" style="fill: none; stroke: #ffffff; stroke-linecap: round"/>
     </g>
     <g id="text_15">
      <!-- Partition5 -->
      <g style="fill: #262626" transform="translate(14.107812 43.361977) scale(0.1 -0.1)">
       <use xlink:href="#Tahoma-50"/>
       <use xlink:href="#Tahoma-61" x="52.876953"/>
       <use xlink:href="#Tahoma-72" x="105.367188"/>
       <use xlink:href="#Tahoma-74" x="141.402344"/>
       <use xlink:href="#Tahoma-69" x="174.849609"/>
       <use xlink:href="#Tahoma-74" x="197.951172"/>
       <use xlink:href="#Tahoma-69" x="231.398438"/>
       <use xlink:href="#Tahoma-6f" x="254.25"/>
       <use xlink:href="#Tahoma-6e" x="308.546875"/>
       <use xlink:href="#Tahoma-35" x="364.308594"/>
      </g>
     </g>
    </g>
   </g>
   <g id="patch_3">
    <path d="M 63 184.68 
L 190.351224 184.68 
L 190.351224 172.514483 
L 63 172.514483 
z
" clip-path="url(#p7efd55608b)" style="fill: #6590a6; stroke: #ffffff; stroke-width: 0.3; stroke-linejoin: miter"/>
   </g>
   <g id="patch_4">
    <path d="M 63 149.921379 
L 213.488415 149.921379 
L 213.488415 137.755862 
L 63 137.755862 
z
" clip-path="url(#p7efd55608b)" style="fill: #6590a6; stroke: #ffffff; stroke-width: 0.3; stroke-linejoin: miter"/>
   </g>
   <g id="patch_5">
    <path d="M 63 115.162759 
L 129.745728 115.162759 
L 129.745728 102.997241 
L 63 102.997241 
z
" clip-path="url(#p7efd55608b)" style="fill: #6590a6; stroke: #ffffff; stroke-width: 0.3; stroke-linejoin: miter"/>
   </g>
   <g id="patch_6">
    <path d="M 63 80.404138 
L 147.184065 80.404138 
L 147.184065 68.238621 
L 63 68.238621 
z
" clip-path="url(#p7efd55608b)" style="fill: #6590a6; stroke: #ffffff; stroke-width: 0.3; stroke-linejoin: miter"/>
   </g>
   <g id="patch_7">
    <path d="M 63 45.645517 
L 196.40943 45.645517 
L 196.40943 33.48 
L 63 33.48 
z
" clip-path="url(#p7efd55608b)" style="fill: #6590a6; stroke: #ffffff; stroke-width: 0.3; stroke-linejoin: miter"/>
   </g>
   <g id="patch_8">
    <path d="M 190.351224 184.68 
L 318.90159 184.68 
L 318.90159 172.514483 
L 190.351224 172.514483 
z
" clip-path="url(#p7efd55608b)" style="fill: #f95a00; stroke: #ffffff; stroke-width: 0.3; stroke-linejoin: miter"/>
   </g>
   <g id="patch_9">
    <path d="M 213.488415 149.921379 
L 366.498153 149.921379 
L 366.498153 137.755862 
L 213.488415 137.755862 
z
" clip-path="url(#p7efd55608b)" style="fill: #f95a00; stroke: #ffffff; stroke-width: 0.3; stroke-linejoin: miter"/>
   </g>
   <g id="patch_10">
    <path d="M 129.745728 115.162759 
L 198.973719 115.162759 
L 198.973719 102.997241 
L 129.745728 102.997241 
z
" clip-path="url(#p7efd55608b)" style="fill: #f95a00; stroke: #ffffff; stroke-width: 0.3; stroke-linejoin: miter"/>
   </g>
   <g id="patch_11">
    <path d="M 147.184065 80.404138 
L 233.389485 80.404138 
L 233.389485 68.238621 
L 147.184065 68.238621 
z
" clip-path="url(#p7efd55608b)" style="fill: #f95a00; stroke: #ffffff; stroke-width: 0.3; stroke-linejoin: miter"/>
   </g>
   <g id="patch_12">
    <path d="M 196.40943 45.645517 
L 330.408666 45.645517 
L 330.408666 33.48 
L 196.40943 33.48 
z
" clip-path="url(#p7efd55608b)" style="fill: #f95a00; stroke: #ffffff; stroke-width: 0.3; stroke-linejoin: miter"/>
   </g>
   <g id="patch_13">
    <path d="M 63 192.24 
L 63 25.92 
" style="fill: none"/>
   </g>
   <g id="patch_14">
    <path d="M 453.6 192.24 
L 453.6 25.92 
" style="fill: none"/>
   </g>
   <g id="patch_15">
    <path d="M 63 192.24 
L 453.6 192.24 
" style="fill: none"/>
   </g>
   <g id="patch_16">
    <path d="M 63 25.92 
L 453.6 25.92 
" style="fill: none"/>
   </g>
   <g id="text_16">
    <!-- 1:1 -->
    <g style="fill: #008000" transform="translate(331.926981 181.110913) scale(0.09 -0.09)">
     <defs>
      <path id="Tahoma-3a" d="M 1506 2600 
L 759 2600 
L 759 3491 
L 1506 3491 
L 1506 2600 
z
M 1506 0 
L 759 0 
L 759 891 
L 1506 891 
L 1506 0 
z
" transform="scale(0.015625)"/>
     </defs>
     <use xlink:href="#Tahoma-31"/>
     <use xlink:href="#Tahoma-3a" x="54.589844"/>
     <use xlink:href="#Tahoma-31" x="89.941406"/>
    </g>
   </g>
   <g id="text_17">
    <!-- 1:1 -->
    <g style="fill: #008000" transform="translate(379.523544 146.352293) scale(0.09 -0.09)">
     <use xlink:href="#Tahoma-31"/>
     <use xlink:href="#Tahoma-3a" x="54.589844"/>
     <use xlink:href="#Tahoma-31" x="89.941406"/>
    </g>
   </g>
   <g id="text_18">
    <!-- 1:1 -->
    <g style="fill: #008000" transform="translate(211.99911 111.593672) scale(0.09 -0.09)">
     <use xlink:href="#Tahoma-31"/>
     <use xlink:href="#Tahoma-3a" x="54.589844"/>
     <use xlink:href="#Tahoma-31" x="89.941406"/>
    </g>
   </g>
   <g id="text_19">
    <!-- 1:1 -->
    <g style="fill: #008000" transform="translate(246.414876 76.835051) scale(0.09 -0.09)">
     <use xlink:href="#Tahoma-31"/>
     <use xlink:href="#Tahoma-3a" x="54.589844"/>
     <use xlink:href="#Tahoma-31" x="89.941406"/>
    </g>
   </g>
   <g id="text_20">
    <!-- 1:1 -->
    <g style="fill: #008000" transform="translate(343.434057 42.07643) scale(0.09 -0.09)">
     <use xlink:href="#Tahoma-31"/>
     <use xlink:href="#Tahoma-3a" x="54.589844"/>
     <use xlink:href="#Tahoma-31" x="89.941406"/>
    </g>
   </g>
   <g id="text_21">
    <!-- 65208 -->
    <g transform="translate(244.307228 180.831616) scale(0.08 -0.08)">
     <defs>
      <path id="Tahoma-36" d="M 3284 1509 
Q 3284 1150 3165 847 
Q 3047 544 2847 341 
Q 2638 125 2378 14 
Q 2119 -97 1806 -97 
Q 1491 -97 1233 9 
Q 975 116 778 325 
Q 538 578 402 1001 
Q 266 1425 266 2044 
Q 266 2650 391 3139 
Q 516 3628 775 3991 
Q 1028 4344 1428 4542 
Q 1828 4741 2353 4741 
Q 2509 4741 2643 4725 
Q 2778 4709 2881 4675 
L 2881 4078 
L 2853 4078 
Q 2769 4125 2609 4164 
Q 2450 4203 2269 4203 
Q 1688 4203 1330 3811 
Q 972 3419 906 2647 
Q 1128 2803 1362 2887 
Q 1597 2972 1875 2972 
Q 2147 2972 2351 2917 
Q 2556 2863 2778 2697 
Q 3034 2503 3159 2206 
Q 3284 1909 3284 1509 
z
M 2650 1484 
Q 2650 1772 2575 1965 
Q 2500 2159 2331 2297 
Q 2209 2397 2054 2428 
Q 1900 2459 1738 2459 
Q 1519 2459 1312 2393 
Q 1106 2328 906 2203 
Q 900 2134 897 2070 
Q 894 2006 894 1909 
Q 894 1425 989 1128 
Q 1084 831 1225 678 
Q 1359 531 1501 472 
Q 1644 413 1809 413 
Q 2184 413 2417 681 
Q 2650 950 2650 1484 
z
" transform="scale(0.015625)"/>
      <path id="Tahoma-38" d="M 2534 3569 
Q 2534 3881 2325 4090 
Q 2116 4300 1744 4300 
Q 1403 4300 1186 4112 
Q 969 3925 969 3606 
Q 969 3375 1080 3215 
Q 1191 3056 1413 2928 
Q 1509 2875 1707 2781 
Q 1906 2688 2069 2634 
Q 2341 2844 2437 3064 
Q 2534 3284 2534 3569 
z
M 2622 1238 
Q 2622 1525 2509 1694 
Q 2397 1863 2075 2038 
Q 1969 2097 1792 2165 
Q 1616 2234 1394 2328 
Q 1134 2156 996 1904 
Q 859 1653 859 1331 
Q 859 909 1114 634 
Q 1369 359 1753 359 
Q 2147 359 2384 595 
Q 2622 831 2622 1238 
z
M 1747 -106 
Q 1400 -106 1115 -3 
Q 831 100 631 294 
Q 434 481 332 739 
Q 231 997 231 1284 
Q 231 1663 432 1980 
Q 634 2297 1019 2484 
L 1019 2503 
Q 675 2703 509 2940 
Q 344 3178 344 3534 
Q 344 4059 741 4409 
Q 1138 4759 1747 4759 
Q 2381 4759 2764 4426 
Q 3147 4094 3147 3575 
Q 3147 3263 2964 2956 
Q 2781 2650 2438 2478 
L 2438 2459 
Q 2844 2269 3053 1997 
Q 3263 1725 3263 1297 
Q 3263 700 2830 297 
Q 2397 -106 1747 -106 
z
" transform="scale(0.015625)"/>
     </defs>
     <use xlink:href="#Tahoma-36"/>
     <use xlink:href="#Tahoma-35" x="54.589844"/>
     <use xlink:href="#Tahoma-32" x="109.179688"/>
     <use xlink:href="#Tahoma-30" x="163.769531"/>
     <use xlink:href="#Tahoma-38" x="218.359375"/>
    </g>
   </g>
   <g id="text_22">
    <!-- 77055 -->
    <g transform="translate(280.335196 146.072996) scale(0.08 -0.08)">
     <use xlink:href="#Tahoma-37"/>
     <use xlink:href="#Tahoma-37" x="54.589844"/>
     <use xlink:href="#Tahoma-30" x="109.179688"/>
     <use xlink:href="#Tahoma-35" x="163.769531"/>
     <use xlink:href="#Tahoma-35" x="218.359375"/>
    </g>
   </g>
   <g id="text_23">
    <!-- 34176 -->
    <g transform="translate(154.682105 111.314375) scale(0.08 -0.08)">
     <use xlink:href="#Tahoma-33"/>
     <use xlink:href="#Tahoma-34" x="54.589844"/>
     <use xlink:href="#Tahoma-31" x="109.179688"/>
     <use xlink:href="#Tahoma-37" x="163.769531"/>
     <use xlink:href="#Tahoma-36" x="218.359375"/>
    </g>
   </g>
   <g id="text_24">
    <!-- 43105 -->
    <g transform="translate(180.378703 76.555754) scale(0.08 -0.08)">
     <use xlink:href="#Tahoma-34"/>
     <use xlink:href="#Tahoma-33" x="54.589844"/>
     <use xlink:href="#Tahoma-31" x="109.179688"/>
     <use xlink:href="#Tahoma-30" x="163.769531"/>
     <use xlink:href="#Tahoma-35" x="218.359375"/>
    </g>
   </g>
   <g id="text_25">
    <!-- 68310 -->
    <g transform="translate(252.785201 41.797134) scale(0.08 -0.08)">
     <use xlink:href="#Tahoma-36"/>
     <use xlink:href="#Tahoma-38" x="54.589844"/>
     <use xlink:href="#Tahoma-33" x="109.179688"/>
     <use xlink:href="#Tahoma-31" x="163.769531"/>
     <use xlink:href="#Tahoma-30" x="218.359375"/>
    </g>
   </g>
   <g id="text_26">
    <!-- 65822 -->
    <g transform="translate(115.157291 180.831616) scale(0.08 -0.08)">
     <use xlink:href="#Tahoma-36"/>
     <use xlink:href="#Tahoma-35" x="54.589844"/>
     <use xlink:href="#Tahoma-38" x="109.179688"/>
     <use xlink:href="#Tahoma-32" x="163.769531"/>
     <use xlink:href="#Tahoma-32" x="218.359375"/>
    </g>
   </g>
   <g id="text_27">
    <!-- 78346 -->
    <g transform="translate(126.064796 146.072996) scale(0.08 -0.08)">
     <use xlink:href="#Tahoma-37"/>
     <use xlink:href="#Tahoma-38" x="54.589844"/>
     <use xlink:href="#Tahoma-33" x="109.179688"/>
     <use xlink:href="#Tahoma-34" x="163.769531"/>
     <use xlink:href="#Tahoma-36" x="218.359375"/>
    </g>
   </g>
   <g id="text_28">
    <!-- 35447 -->
    <g transform="translate(84.212982 111.314375) scale(0.08 -0.08)">
     <use xlink:href="#Tahoma-33"/>
     <use xlink:href="#Tahoma-35" x="54.589844"/>
     <use xlink:href="#Tahoma-34" x="109.179688"/>
     <use xlink:href="#Tahoma-34" x="163.769531"/>
     <use xlink:href="#Tahoma-37" x="218.359375"/>
    </g>
   </g>
   <g id="text_29">
    <!-- 44140 -->
    <g transform="translate(93.162605 76.555754) scale(0.08 -0.08)">
     <use xlink:href="#Tahoma-34"/>
     <use xlink:href="#Tahoma-34" x="54.589844"/>
     <use xlink:href="#Tahoma-31" x="109.179688"/>
     <use xlink:href="#Tahoma-34" x="163.769531"/>
     <use xlink:href="#Tahoma-30" x="218.359375"/>
    </g>
   </g>
   <g id="text_30">
    <!-- 68612 -->
    <g transform="translate(118.491062 41.797134) scale(0.08 -0.08)">
     <use xlink:href="#Tahoma-36"/>
     <use xlink:href="#Tahoma-38" x="54.589844"/>
     <use xlink:href="#Tahoma-36" x="109.179688"/>
     <use xlink:href="#Tahoma-31" x="163.769531"/>
     <use xlink:href="#Tahoma-32" x="218.359375"/>
    </g>
   </g>
   <g id="text_31">
    <!-- Imbalanced Ratio after Over-sampling with TimeGAN -->
    <g style="fill: #262626" transform="translate(118.172813 19.92) scale(0.12 -0.12)">
     <defs>
      <path id="Tahoma-49" d="M 2097 0 
L 291 0 
L 291 475 
L 884 475 
L 884 4178 
L 291 4178 
L 291 4653 
L 2097 4653 
L 2097 4178 
L 1503 4178 
L 1503 475 
L 2097 475 
L 2097 0 
z
" transform="scale(0.015625)"/>
      <path id="Tahoma-62" d="M 2747 1756 
Q 2747 2381 2556 2704 
Q 2366 3028 1944 3028 
Q 1703 3028 1458 2915 
Q 1213 2803 1013 2631 
L 1013 631 
Q 1234 522 1406 476 
Q 1578 431 1784 431 
Q 2234 431 2490 750 
Q 2747 1069 2747 1756 
z
M 3353 1803 
Q 3353 947 2937 425 
Q 2522 -97 1897 -97 
Q 1613 -97 1411 -26 
Q 1209 44 1013 163 
L 975 0 
L 425 0 
L 425 4863 
L 1013 4863 
L 1013 3125 
Q 1234 3325 1493 3456 
Q 1753 3588 2081 3588 
Q 2672 3588 3012 3114 
Q 3353 2641 3353 1803 
z
" transform="scale(0.015625)"/>
      <path id="Tahoma-63" d="M 1813 -78 
Q 1453 -78 1153 33 
Q 853 144 638 369 
Q 422 594 303 936 
Q 184 1278 184 1741 
Q 184 2200 307 2534 
Q 431 2869 638 3097 
Q 844 3325 1151 3448 
Q 1459 3572 1813 3572 
Q 2100 3572 2367 3490 
Q 2634 3409 2844 3303 
L 2844 2644 
L 2809 2644 
Q 2747 2697 2648 2765 
Q 2550 2834 2409 2906 
Q 2288 2969 2122 3016 
Q 1956 3063 1803 3063 
Q 1347 3063 1070 2717 
Q 794 2372 794 1741 
Q 794 1122 1061 776 
Q 1328 431 1803 431 
Q 2091 431 2350 550 
Q 2609 669 2809 856 
L 2844 856 
L 2844 197 
Q 2756 156 2625 98 
Q 2494 41 2388 13 
Q 2238 -31 2119 -54 
Q 2000 -78 1813 -78 
z
" transform="scale(0.015625)"/>
      <path id="Tahoma-64" d="M 3113 0 
L 2525 0 
L 2525 356 
Q 2388 241 2288 166 
Q 2188 91 2053 28 
Q 1928 -31 1793 -64 
Q 1659 -97 1481 -97 
Q 1197 -97 955 22 
Q 713 141 544 369 
Q 372 600 278 939 
Q 184 1278 184 1719 
Q 184 2178 303 2514 
Q 422 2850 631 3100 
Q 822 3328 1092 3458 
Q 1363 3588 1659 3588 
Q 1922 3588 2115 3530 
Q 2309 3472 2525 3350 
L 2525 4863 
L 3113 4863 
L 3113 0 
z
M 2525 850 
L 2525 2863 
Q 2306 2969 2132 3009 
Q 1959 3050 1756 3050 
Q 1303 3050 1047 2711 
Q 791 2372 791 1731 
Q 791 1116 987 789 
Q 1184 463 1619 463 
Q 1850 463 2084 567 
Q 2319 672 2525 850 
z
" transform="scale(0.015625)"/>
      <path id="Tahoma-52" d="M 4075 0 
L 3272 0 
L 1797 1850 
L 1091 1850 
L 1091 0 
L 472 0 
L 472 4653 
L 1672 4653 
Q 2072 4653 2342 4609 
Q 2613 4566 2856 4406 
Q 3100 4250 3242 4003 
Q 3384 3756 3384 3391 
Q 3384 2878 3125 2534 
Q 2866 2191 2419 2025 
L 4075 0 
z
M 2738 3344 
Q 2738 3547 2666 3705 
Q 2594 3863 2444 3963 
Q 2313 4050 2138 4086 
Q 1963 4122 1703 4122 
L 1091 4122 
L 1091 2366 
L 1634 2366 
Q 1900 2366 2112 2412 
Q 2325 2459 2475 2606 
Q 2609 2738 2673 2919 
Q 2738 3100 2738 3344 
z
" transform="scale(0.015625)"/>
      <path id="Tahoma-66" d="M 2263 4300 
L 2231 4300 
Q 2153 4328 2006 4354 
Q 1859 4381 1744 4381 
Q 1372 4381 1214 4214 
Q 1056 4047 1056 3609 
L 1056 3491 
L 2028 3491 
L 2028 3003 
L 1075 3003 
L 1075 0 
L 488 0 
L 488 3003 
L 91 3003 
L 91 3491 
L 488 3491 
L 488 3606 
Q 488 4238 791 4566 
Q 1094 4894 1659 4894 
Q 1822 4894 1978 4876 
Q 2134 4859 2263 4838 
L 2263 4300 
z
" transform="scale(0.015625)"/>
      <path id="Tahoma-4f" d="M 3763 4119 
Q 4028 3813 4175 3359 
Q 4322 2906 4322 2325 
Q 4322 1759 4178 1303 
Q 4034 847 3763 538 
Q 3478 213 3098 58 
Q 2719 -97 2263 -97 
Q 1791 -97 1412 62 
Q 1034 222 763 538 
Q 494 847 350 1300 
Q 206 1753 206 2325 
Q 206 2913 351 3356 
Q 497 3800 766 4119 
Q 1034 4428 1414 4589 
Q 1794 4750 2263 4750 
Q 2738 4750 3119 4584 
Q 3500 4419 3763 4119 
z
M 3678 2325 
Q 3678 2788 3578 3144 
Q 3478 3500 3297 3734 
Q 3113 3975 2852 4095 
Q 2591 4216 2266 4216 
Q 1928 4216 1676 4098 
Q 1425 3981 1231 3734 
Q 1047 3497 948 3137 
Q 850 2778 850 2325 
Q 850 1409 1234 923 
Q 1619 438 2266 438 
Q 2913 438 3295 923 
Q 3678 1409 3678 2325 
z
" transform="scale(0.015625)"/>
      <path id="Tahoma-76" d="M 3169 3491 
L 1853 0 
L 1325 0 
L 19 3491 
L 653 3491 
L 1609 797 
L 2556 3491 
L 3169 3491 
z
" transform="scale(0.015625)"/>
      <path id="Tahoma-2d" d="M 2044 1753 
L 281 1753 
L 281 2319 
L 2044 2319 
L 2044 1753 
z
" transform="scale(0.015625)"/>
      <path id="Tahoma-73" d="M 1369 -84 
Q 1019 -84 714 9 
Q 409 103 209 209 
L 209 869 
L 241 869 
Q 316 809 417 737 
Q 519 666 688 588 
Q 838 519 1017 466 
Q 1197 413 1391 413 
Q 1531 413 1690 445 
Q 1850 478 1928 528 
Q 2038 600 2086 681 
Q 2134 763 2134 925 
Q 2134 1134 2020 1240 
Q 1906 1347 1616 1419 
Q 1503 1447 1322 1484 
Q 1141 1522 988 1566 
Q 588 1681 406 1923 
Q 225 2166 225 2509 
Q 225 2981 581 3278 
Q 938 3575 1528 3575 
Q 1819 3575 2112 3503 
Q 2406 3431 2606 3322 
L 2606 2694 
L 2575 2694 
Q 2350 2872 2073 2975 
Q 1797 3078 1516 3078 
Q 1225 3078 1025 2956 
Q 825 2834 825 2588 
Q 825 2369 944 2261 
Q 1063 2153 1325 2084 
Q 1456 2050 1617 2017 
Q 1778 1984 1956 1941 
Q 2344 1844 2539 1619 
Q 2734 1394 2734 1006 
Q 2734 781 2645 579 
Q 2556 378 2384 234 
Q 2197 78 1961 -3 
Q 1725 -84 1369 -84 
z
" transform="scale(0.015625)"/>
      <path id="Tahoma-67" d="M 2525 947 
L 2525 2863 
Q 2306 2969 2120 3014 
Q 1934 3059 1750 3059 
Q 1303 3059 1047 2731 
Q 791 2403 791 1791 
Q 791 1209 986 906 
Q 1181 603 1619 603 
Q 1847 603 2089 693 
Q 2331 784 2525 947 
z
M 550 -559 
Q 609 -584 725 -626 
Q 841 -669 988 -706 
Q 1150 -747 1287 -772 
Q 1425 -797 1588 -797 
Q 1859 -797 2048 -725 
Q 2238 -653 2344 -525 
Q 2444 -397 2484 -228 
Q 2525 -59 2525 156 
L 2525 463 
Q 2288 256 2059 157 
Q 1831 59 1488 59 
Q 891 59 537 503 
Q 184 947 184 1778 
Q 184 2213 306 2548 
Q 428 2884 634 3119 
Q 831 3344 1100 3466 
Q 1369 3588 1656 3588 
Q 1928 3588 2126 3523 
Q 2325 3459 2525 3341 
L 2559 3491 
L 3113 3491 
L 3113 397 
Q 3113 -491 2725 -906 
Q 2338 -1322 1541 -1322 
Q 1284 -1322 1017 -1281 
Q 750 -1241 519 -1172 
L 519 -559 
L 550 -559 
z
" transform="scale(0.015625)"/>
      <path id="Tahoma-77" d="M 4656 3491 
L 3772 0 
L 3228 0 
L 2375 2691 
L 1528 0 
L 988 0 
L 94 3491 
L 706 3491 
L 1322 788 
L 2150 3491 
L 2634 3491 
L 3484 788 
L 4066 3491 
L 4656 3491 
z
" transform="scale(0.015625)"/>
      <path id="Tahoma-68" d="M 3169 0 
L 2581 0 
L 2581 1988 
Q 2581 2228 2557 2436 
Q 2534 2644 2469 2769 
Q 2397 2900 2269 2964 
Q 2141 3028 1919 3028 
Q 1700 3028 1467 2911 
Q 1234 2794 1013 2606 
L 1013 0 
L 425 0 
L 425 4863 
L 1013 4863 
L 1013 3103 
Q 1275 3338 1531 3463 
Q 1788 3588 2072 3588 
Q 2588 3588 2878 3248 
Q 3169 2909 3169 2266 
L 3169 0 
z
" transform="scale(0.015625)"/>
      <path id="Tahoma-54" d="M 1559 0 
L 1559 4103 
L -3 4103 
L -3 4653 
L 3741 4653 
L 3741 4103 
L 2178 4103 
L 2178 0 
L 1559 0 
z
" transform="scale(0.015625)"/>
      <path id="Tahoma-47" d="M 2419 -91 
Q 1925 -91 1515 59 
Q 1106 209 813 516 
Q 519 825 362 1281 
Q 206 1738 206 2331 
Q 206 2894 364 3339 
Q 522 3784 816 4100 
Q 1100 4406 1515 4572 
Q 1931 4738 2425 4738 
Q 2659 4738 2875 4703 
Q 3091 4669 3288 4609 
Q 3444 4563 3636 4480 
Q 3828 4397 3947 4338 
L 3947 3591 
L 3894 3591 
Q 3778 3694 3654 3786 
Q 3531 3878 3306 3984 
Q 3119 4078 2875 4140 
Q 2631 4203 2350 4203 
Q 1678 4203 1264 3697 
Q 850 3191 850 2350 
Q 850 1881 959 1531 
Q 1069 1181 1275 938 
Q 1475 697 1758 570 
Q 2041 444 2394 444 
Q 2656 444 2915 481 
Q 3175 519 3353 594 
L 3353 1797 
L 2278 1797 
L 2278 2341 
L 3966 2341 
L 3966 309 
Q 3847 256 3648 175 
Q 3450 94 3278 47 
Q 3050 -22 2865 -56 
Q 2681 -91 2419 -91 
z
" transform="scale(0.015625)"/>
      <path id="Tahoma-41" d="M -31 0 
L 1538 4653 
L 2300 4653 
L 3869 0 
L 3216 0 
L 2794 1300 
L 1016 1300 
L 594 0 
L -31 0 
z
M 2622 1828 
L 1903 4022 
L 1188 1828 
L 2622 1828 
z
" transform="scale(0.015625)"/>
      <path id="Tahoma-4e" d="M 3800 0 
L 3106 0 
L 1050 4013 
L 1050 0 
L 472 0 
L 472 4653 
L 1350 4653 
L 3222 969 
L 3222 4653 
L 3800 4653 
L 3800 0 
z
" transform="scale(0.015625)"/>
     </defs>
     <use xlink:href="#Tahoma-49"/>
     <use xlink:href="#Tahoma-6d" x="36.804688"/>
     <use xlink:href="#Tahoma-62" x="120.789062"/>
     <use xlink:href="#Tahoma-61" x="176.0625"/>
     <use xlink:href="#Tahoma-6c" x="228.552734"/>
     <use xlink:href="#Tahoma-61" x="251.404297"/>
     <use xlink:href="#Tahoma-6e" x="303.894531"/>
     <use xlink:href="#Tahoma-63" x="359.65625"/>
     <use xlink:href="#Tahoma-65" x="405.798828"/>
     <use xlink:href="#Tahoma-64" x="458.435547"/>
     <use xlink:href="#Tahoma-20" x="513.708984"/>
     <use xlink:href="#Tahoma-52" x="544.958984"/>
     <use xlink:href="#Tahoma-61" x="606.144531"/>
     <use xlink:href="#Tahoma-74" x="658.634766"/>
     <use xlink:href="#Tahoma-69" x="692.082031"/>
     <use xlink:href="#Tahoma-6f" x="714.933594"/>
     <use xlink:href="#Tahoma-20" x="769.230469"/>
     <use xlink:href="#Tahoma-61" x="800.480469"/>
     <use xlink:href="#Tahoma-66" x="852.970703"/>
     <use xlink:href="#Tahoma-74" x="884.806641"/>
     <use xlink:href="#Tahoma-65" x="918.253906"/>
     <use xlink:href="#Tahoma-72" x="970.890625"/>
     <use xlink:href="#Tahoma-20" x="1006.925781"/>
     <use xlink:href="#Tahoma-4f" x="1038.175781"/>
     <use xlink:href="#Tahoma-76" x="1108.927734"/>
     <use xlink:href="#Tahoma-65" x="1157.982422"/>
     <use xlink:href="#Tahoma-72" x="1210.619141"/>
     <use xlink:href="#Tahoma-2d" x="1245.404297"/>
     <use xlink:href="#Tahoma-73" x="1281.732422"/>
     <use xlink:href="#Tahoma-61" x="1326.361328"/>
     <use xlink:href="#Tahoma-6d" x="1378.851562"/>
     <use xlink:href="#Tahoma-70" x="1462.835938"/>
     <use xlink:href="#Tahoma-6c" x="1518.109375"/>
     <use xlink:href="#Tahoma-69" x="1541.085938"/>
     <use xlink:href="#Tahoma-6e" x="1563.9375"/>
     <use xlink:href="#Tahoma-67" x="1619.699219"/>
     <use xlink:href="#Tahoma-20" x="1674.972656"/>
     <use xlink:href="#Tahoma-77" x="1706.222656"/>
     <use xlink:href="#Tahoma-69" x="1780.441406"/>
     <use xlink:href="#Tahoma-74" x="1803.542969"/>
     <use xlink:href="#Tahoma-68" x="1836.990234"/>
     <use xlink:href="#Tahoma-20" x="1892.751953"/>
     <use xlink:href="#Tahoma-54" x="1924.001953"/>
     <use xlink:href="#Tahoma-69" x="1982.400391"/>
     <use xlink:href="#Tahoma-6d" x="2005.251953"/>
     <use xlink:href="#Tahoma-65" x="2089.236328"/>
     <use xlink:href="#Tahoma-47" x="2141.873047"/>
     <use xlink:href="#Tahoma-41" x="2208.621094"/>
     <use xlink:href="#Tahoma-4e" x="2268.582031"/>
    </g>
   </g>
  </g>
 </g>
 <defs>
  <clipPath id="p7efd55608b">
   <rect x="63" y="25.92" width="390.6" height="166.32"/>
  </clipPath>
 </defs>
</svg>
